<?xml version="1.0" encoding="UTF-8"?>
<svg xmlns="http://www.w3.org/2000/svg" xmlns:xlink="http://www.w3.org/1999/xlink" width="375pt" height="374.999991pt" viewBox="0 0 375 374.999991" version="1.2">
<defs>
<clipPath id="clip1">
  <path d="M 99.175781 65.566406 L 276.175781 65.566406 L 276.175781 309.316406 L 99.175781 309.316406 Z M 99.175781 65.566406 "/>
</clipPath>
</defs>
<g id="surface1">
<g clip-path="url(#clip1)" clip-rule="nonzero">
<path style=" stroke:none;fill-rule:nonzero;fill:rgb(90.19928%,16.859436%,29.019165%);fill-opacity:1;" d="M 195.007812 145.183594 C 195.875 101.082031 231.9375 65.59375 276.300781 65.59375 C 276.308594 65.59375 276.308594 65.59375 276.3125 65.59375 L 276.3125 80.820312 C 276.308594 80.820312 276.308594 80.820312 276.300781 80.820312 L 276.300781 212.8125 C 276.308594 212.8125 276.308594 212.8125 276.3125 212.8125 L 276.3125 228.039062 C 276.308594 228.039062 276.308594 228.039062 276.300781 228.039062 C 276.300781 272.894531 239.90625 309.253906 195.007812 309.261719 Z M 180.5 282.089844 C 180.398438 282.089844 180.292969 282.097656 180.191406 282.097656 C 150.148438 282.097656 125.785156 257.765625 125.785156 227.75 C 125.785156 197.734375 150.140625 173.402344 180.191406 173.402344 C 180.292969 173.402344 180.398438 173.410156 180.5 173.410156 L 180.5 146.238281 C 180.398438 146.238281 180.292969 146.234375 180.191406 146.234375 C 135.121094 146.234375 98.582031 182.730469 98.582031 227.75 C 98.582031 272.769531 135.121094 309.269531 180.191406 309.269531 C 180.292969 309.269531 180.398438 309.261719 180.5 309.261719 Z M 180.5 282.089844 "/>
</g>
<path style=" stroke:none;fill-rule:nonzero;fill:rgb(100%,76.858521%,83.139038%);fill-opacity:1;" d="M 180.5 263.980469 C 160.464844 263.980469 144.226562 247.761719 144.226562 227.75 C 144.226562 207.742188 160.464844 191.519531 180.5 191.519531 Z M 180.5 263.980469 "/>
</g>
</svg>
