<?xml version="1.0" standalone="no"?>
<!DOCTYPE svg PUBLIC "-//W3C//DTD SVG 20010904//EN" "http://www.w3.org/TR/2001/REC-SVG-20010904/DTD/svg10.dtd">
<svg version="1.0" xmlns="http://www.w3.org/2000/svg" width="700.000000pt" height="700.000000pt" viewBox="0 0 700.000000 700.000000" preserveAspectRatio="xMidYMid meet">
  <metadata>Devnoty.com</metadata>
  <g transform="translate(0.000000,700.000000) scale(0.100000,-0.100000)" fill="#000000" stroke="none">
    <path d="M5108 5776 c-1 -2 -41 -6 -88 -9 -229 -15 -481 -102 -697 -242 -301
-196 -527 -506 -628 -862 -55 -193 -53 -151 -54 -1857 l-1 -1579 102 6 c160 8
362 56 496 118 35 16 65 29 67 29 12 0 163 92 230 140 84 61 224 193 286 270
177 223 300 517 326 785 4 44 8 779 8 1634 l-1 1554 -21 8 c-12 4 -23 6 -25 5z" />
    <path d="M3217 4264 c-1 -1 -24 -4 -52 -8 -422 -52 -818 -296 -1061 -654 -113
-166 -203 -384 -238 -577 -20 -108 -20 -452 -1 -555 133 -687 714 -1199 1403
-1237 l102 -5 -2 252 -3 253 -45 3 c-144 8 -259 36 -378 91 -295 138 -501 396
-571 715 -30 136 -24 347 13 473 94 321 315 562 626 685 65 26 234 60 304 61
l56 2 0 254 0 254 -75 -3 c-42 -1 -77 -3 -78 -4z" />
    <path d="M3329 3426 c-2 -2 -27 -7 -55 -10 -139 -15 -275 -84 -386 -196 -61
-63 -85 -96 -122 -171 -53 -110 -67 -164 -71 -276 -14 -363 252 -661 622 -698
l53 -5 0 674 c0 605 -2 674 -16 680 -19 7 -19 7 -25 2z" />
  </g>
</svg>
