<svg id="devnoty" viewBox="0 0 94 128" fill="currentColor" xmlns="http://www.w3.org/2000/svg">
  <path d="M50.9241 41.8829C51.3773 18.8325 70.226 0.283936 93.4132 0.283936C93.4173 0.283936 93.4173 0.283936 93.4193 0.283936V8.24235C93.4173 8.24235 93.4173 8.24235 93.4132 8.24235V77.2303C93.4173 77.2303 93.4173 77.2303 93.4193 77.2303V85.1887C93.4173 85.1887 93.4173 85.1887 93.4132 85.1887C93.4132 108.633 74.391 127.637 50.9241 127.641V41.8829ZM43.3413 113.439C43.2882 113.439 43.2331 113.443 43.18 113.443C27.4776 113.443 14.7437 100.726 14.7437 85.0376C14.7437 69.3494 27.4735 56.6319 43.18 56.6319C43.2331 56.6319 43.2882 56.636 43.3413 56.636V42.4341C43.2882 42.4341 43.2331 42.4321 43.18 42.4321C19.6233 42.4321 0.525513 61.5074 0.525513 85.0376C0.525513 108.568 19.6233 127.645 43.18 127.645C43.2331 127.645 43.2882 127.641 43.3413 127.641V113.439Z" />
  <path d="M43.3413 103.974C32.8696 103.974 24.3824 95.4972 24.3824 85.0378C24.3824 74.5804 32.8696 66.1013 43.3413 66.1013V103.974Z" />
</svg>
