<svg width="296" height="254" viewBox="0 0 296 254" fill="none" xmlns="http://www.w3.org/2000/svg">
<path d="M148.535 253.693C229.754 253.693 295.595 251.859 295.595 249.596C295.595 247.334 229.754 245.499 148.535 245.499C67.3158 245.499 1.47467 247.334 1.47467 249.596C1.47467 251.859 67.3158 253.693 148.535 253.693Z" fill="#2E353A"/>
<path d="M223.036 245.862H209.43V0.663574L223.036 16.4845V245.862Z" stroke="#2E353A" stroke-linecap="round" stroke-linejoin="round"/>
<path d="M209.559 188.127H222.908L209.559 175.223H222.908L209.559 188.127Z" stroke="#2E353A" stroke-linecap="round" stroke-linejoin="round"/>
<path d="M209.559 174.898H222.908L209.559 161.995H222.908L209.559 174.898Z" stroke="#2E353A" stroke-linecap="round" stroke-linejoin="round"/>
<path d="M209.559 214.47H222.908L209.559 201.566H222.908L209.559 214.47Z" stroke="#2E353A" stroke-linecap="round" stroke-linejoin="round"/>
<path d="M209.559 201.241H222.908L209.559 188.338H222.908L209.559 201.241Z" stroke="#2E353A" stroke-linecap="round" stroke-linejoin="round"/>
<path d="M209.559 161.67H222.908L209.559 148.767H222.908L209.559 161.67Z" stroke="#2E353A" stroke-linecap="round" stroke-linejoin="round"/>
<path d="M209.559 148.442H222.908L209.559 135.539H222.908L209.559 148.442Z" stroke="#2E353A" stroke-linecap="round" stroke-linejoin="round"/>
<path d="M209.559 135.214H222.908L209.559 122.31H222.908L209.559 135.214Z" stroke="#2E353A" stroke-linecap="round" stroke-linejoin="round"/>
<path d="M209.559 121.985H222.908L209.559 109.082H222.908L209.559 121.985Z" stroke="#2E353A" stroke-linecap="round" stroke-linejoin="round"/>
<path d="M209.559 108.757H222.908L209.559 95.8539H222.908L209.559 108.757Z" stroke="#2E353A" stroke-linecap="round" stroke-linejoin="round"/>
<path d="M209.559 95.5289H222.908L209.559 82.6257H222.908L209.559 95.5289Z" stroke="#2E353A" stroke-linecap="round" stroke-linejoin="round"/>
<path d="M209.559 82.3007H222.908L209.559 69.3975H222.908L209.559 82.3007Z" stroke="#2E353A" stroke-linecap="round" stroke-linejoin="round"/>
<path d="M209.559 69.0724H222.908L209.559 56.1692H222.908L209.559 69.0724Z" stroke="#2E353A" stroke-linecap="round" stroke-linejoin="round"/>
<path d="M209.559 55.8442H222.908L209.559 42.941H222.908L209.559 55.8442Z" stroke="#2E353A" stroke-linecap="round" stroke-linejoin="round"/>
<path d="M209.559 42.616H222.908L209.559 29.7128H222.908L209.559 42.616Z" stroke="#2E353A" stroke-linecap="round" stroke-linejoin="round"/>
<path d="M209.559 29.3877H222.908L209.559 16.4845H222.908L209.559 29.3877Z" stroke="#2E353A" stroke-linecap="round" stroke-linejoin="round"/>
<path d="M286.199 29.743L279.608 25.5931H232.576L226.831 29.743H286.199Z" stroke="#2E353A" stroke-linecap="round" stroke-linejoin="round"/>
<path d="M287.288 29.3877H172.391V32.4113H287.288V29.3877Z" fill="#2E353A" stroke="#2E353A" stroke-linecap="round" stroke-linejoin="round"/>
<path d="M279.608 25.5931L209.43 0.663574L232.576 25.5931" stroke="#2E353A" stroke-linecap="round" stroke-linejoin="round"/>
<path d="M209.43 0.663574L172.391 29.3877" stroke="#2E353A" stroke-linecap="round" stroke-linejoin="round"/>
<path d="M232.863 35.8129H204.517V53.9544H232.863V35.8129Z" fill="#2E353A" stroke="#2E353A" stroke-linecap="round" stroke-linejoin="round"/>
<path d="M232.863 228.083H204.517V246.225H232.863V228.083Z" fill="#2E353A" stroke="#2E353A" stroke-linecap="round" stroke-linejoin="round"/>
<path d="M226.952 39.5924H210.42V44.8837H226.952V39.5924Z" fill="white" stroke="#2E353A" stroke-linecap="round" stroke-linejoin="round"/>
<path d="M287.288 32.4114V65.0057" stroke="#2E353A" stroke-linecap="round" stroke-linejoin="round"/>
<path d="M291.604 76.1326H283.206V85.6493H291.604V76.1326Z" fill="#2E353A" stroke="#2E353A" stroke-linecap="round" stroke-linejoin="round"/>
<path d="M283.206 76.1325L287.401 64.3859L291.604 76.1325" stroke="#2E353A" stroke-linecap="round" stroke-linejoin="round"/>
<path d="M175.354 225.77V208.959H125.805V225.785C125.797 231.277 123.932 236.605 120.514 240.903L118.344 243.64H182.785L180.608 240.903C177.202 236.595 175.351 231.262 175.354 225.77Z" fill="white" stroke="#2E353A" stroke-width="1.09543" stroke-linecap="round" stroke-linejoin="round"/>
<g style="mix-blend-mode:multiply">
<path d="M122.759 237.555H178.4C176.411 233.946 175.37 229.891 175.377 225.77V208.959H125.805V225.785C125.802 229.903 124.754 233.953 122.759 237.555Z" fill="#E6284A"/>
</g>
<path d="M175.354 211.476H125.805V218.582H175.354V211.476Z" fill="#2E353A" stroke="#2E353A" stroke-width="1.09543" stroke-linecap="round" stroke-linejoin="round"/>
<path d="M243.136 64.8848H58.0235C54.1452 64.8848 51.0012 68.0288 51.0012 71.9071V207.228C51.0012 211.106 54.1452 214.25 58.0235 214.25H243.136C247.014 214.25 250.158 211.106 250.158 207.228V71.9071C250.158 68.0288 247.014 64.8848 243.136 64.8848Z" fill="#2E353A" stroke="#2E353A" stroke-width="1.09543" stroke-linecap="round" stroke-linejoin="round"/>
<path d="M51.0012 191.037H250.158V207.228C250.158 209.091 249.418 210.877 248.101 212.194C246.784 213.511 244.998 214.25 243.136 214.25H58.0613C56.1989 214.25 54.4127 213.511 53.0958 212.194C51.7788 210.877 51.039 209.091 51.039 207.228V191.037H51.0012Z" fill="white" stroke="#2E353A" stroke-width="1.09543" stroke-linecap="round" stroke-linejoin="round"/>
<path d="M240.135 74.1824H61.0168V179.706H240.135V74.1824Z" fill="#E6284A" stroke="#2E353A" stroke-width="1.09543" stroke-linecap="round" stroke-linejoin="round"/>
<path d="M154.249 202.647C154.251 201.921 154.037 201.21 153.634 200.604C153.231 199.999 152.658 199.527 151.987 199.248C151.316 198.969 150.577 198.895 149.864 199.036C149.151 199.177 148.495 199.526 147.981 200.04C147.466 200.553 147.116 201.208 146.973 201.92C146.831 202.633 146.903 203.372 147.181 204.044C147.459 204.716 147.93 205.29 148.534 205.694C149.138 206.098 149.849 206.314 150.576 206.314C151.058 206.315 151.535 206.22 151.981 206.037C152.427 205.853 152.832 205.583 153.173 205.242C153.514 204.902 153.785 204.497 153.97 204.052C154.154 203.607 154.249 203.129 154.249 202.647Z" fill="#2E353A" stroke="#2E353A" stroke-width="1.09543" stroke-linecap="round" stroke-linejoin="round"/>
<path d="M182.8 243.632H118.367V246.633H182.8V243.632Z" fill="white" stroke="#2E353A" stroke-width="1.09543" stroke-linecap="round" stroke-linejoin="round"/>
<path d="M208.871 100.624C210.946 98.5448 212.479 95.9879 213.334 93.1778C214.19 90.3677 214.341 87.3904 213.776 84.5079L202.536 95.7481C201.898 96.3832 201.033 96.7398 200.133 96.7398C199.232 96.7398 198.368 96.3832 197.729 95.7481L188.386 86.4052C188.069 86.0892 187.818 85.714 187.647 85.3008C187.475 84.8877 187.387 84.4449 187.387 83.9976C187.387 83.5504 187.475 83.1075 187.647 82.6944C187.818 82.2813 188.069 81.906 188.386 81.5901L199.618 70.3574C196.47 69.7427 193.215 69.984 190.192 71.0562C187.169 72.1284 184.489 73.9922 182.432 76.4531C180.375 78.9141 179.016 81.882 178.497 85.0472C177.978 88.2124 178.318 91.4589 179.481 94.4479L150.478 122.787L147.681 119.982L152.216 115.447C152.448 115.211 152.578 114.893 152.578 114.562C152.578 114.232 152.448 113.914 152.216 113.678L148.678 110.14C148.445 109.907 148.128 109.776 147.798 109.776C147.468 109.776 147.151 109.907 146.917 110.14L145.148 111.909L141.316 108.084L142.79 106.61C143.102 106.297 143.277 105.873 143.277 105.431C143.277 104.989 143.102 104.565 142.79 104.252L111.141 72.6025C110.387 71.8473 109.491 71.2482 108.505 70.8395C107.519 70.4308 106.463 70.2204 105.396 70.2204C104.329 70.2204 103.272 70.4308 102.286 70.8395C101.3 71.2482 100.405 71.8473 99.6509 72.6025L96.4156 75.8377C95.6607 76.5911 95.0618 77.4859 94.6531 78.4711C94.2445 79.4562 94.0341 80.5122 94.0341 81.5788C94.0341 82.6453 94.2445 83.7013 94.6531 84.6865C95.0618 85.6716 95.6607 86.5664 96.4156 87.3198L128.065 118.977C128.378 119.289 128.802 119.464 129.244 119.464C129.686 119.464 130.11 119.289 130.424 118.977L131.897 117.503L135.722 121.335L133.961 123.097C133.845 123.212 133.752 123.35 133.689 123.502C133.626 123.654 133.593 123.817 133.593 123.981C133.593 124.145 133.626 124.308 133.689 124.46C133.752 124.612 133.845 124.749 133.961 124.865L137.491 128.403C137.727 128.635 138.045 128.765 138.376 128.765C138.706 128.765 139.024 128.635 139.26 128.403L143.795 123.868L146.547 126.619L122.494 150.052C119.505 148.889 116.258 148.55 113.093 149.069C109.928 149.589 106.96 150.947 104.498 153.004C102.037 155.061 100.173 157.74 99.0993 160.763C98.026 163.785 97.7831 167.041 98.3961 170.189L109.636 158.956C109.952 158.64 110.327 158.389 110.741 158.217C111.154 158.046 111.597 157.958 112.044 157.958C112.491 157.958 112.934 158.046 113.347 158.217C113.76 158.389 114.135 158.64 114.451 158.956L123.825 168.239C124.141 168.555 124.392 168.93 124.564 169.343C124.735 169.756 124.823 170.199 124.823 170.646C124.823 171.094 124.735 171.536 124.564 171.95C124.392 172.363 124.141 172.738 123.825 173.054L112.592 184.287C115.74 184.9 118.995 184.659 122.018 183.586C125.041 182.514 127.72 180.65 129.778 178.19C131.835 175.729 133.195 172.762 133.716 169.597C134.236 166.432 133.898 163.186 132.737 160.196L156.789 136.763L189.588 169.524C189.116 170.739 189.008 172.064 189.277 173.339C189.545 174.614 190.179 175.783 191.1 176.705L199.014 184.619L208.508 175.118L200.594 167.211C199.672 166.29 198.503 165.657 197.228 165.388C195.953 165.12 194.627 165.228 193.413 165.699L160.667 132.953L189.701 104.645C192.942 105.906 196.48 106.197 199.884 105.483C203.287 104.769 206.41 103.081 208.871 100.624Z" fill="#2E353A" stroke="#2E353A" stroke-width="1.09543" stroke-linecap="round" stroke-linejoin="round"/>
<path d="M130.741 156.167L187.683 100.616C190.674 101.781 193.923 102.122 197.091 101.602C200.258 101.082 203.228 99.7207 205.69 97.6606C208.152 95.6005 210.015 92.917 211.085 89.8906C212.155 86.8642 212.393 83.6059 211.773 80.4562L200.541 91.6889C200.225 92.0055 199.849 92.2566 199.436 92.4279C199.023 92.5993 198.58 92.6875 198.133 92.6875C197.686 92.6875 197.243 92.5993 196.83 92.4279C196.417 92.2566 196.042 92.0055 195.726 91.6889L186.383 82.346C186.066 82.0307 185.815 81.6561 185.644 81.2436C185.473 80.8311 185.385 80.3889 185.385 79.9422C185.385 79.4956 185.473 79.0534 185.644 78.6409C185.815 78.2284 186.066 77.8538 186.383 77.5385L197.615 66.2983C194.466 65.6844 191.209 65.9275 188.186 67.002C185.162 68.0764 182.482 69.943 180.426 72.4067C178.371 74.8704 177.014 77.8409 176.498 81.008C175.982 84.1751 176.326 87.4226 177.493 90.4114L120.551 145.962C117.562 144.799 114.316 144.459 111.151 144.978C107.985 145.497 105.018 146.856 102.557 148.913C100.096 150.971 98.2319 153.65 97.1597 156.673C96.0875 159.696 95.8462 162.952 96.461 166.1L107.694 154.867C108.01 154.55 108.385 154.299 108.798 154.128C109.211 153.957 109.654 153.868 110.101 153.868C110.548 153.868 110.991 153.957 111.404 154.128C111.817 154.299 112.193 154.55 112.509 154.867L121.852 164.21C122.168 164.525 122.419 164.9 122.59 165.312C122.761 165.725 122.85 166.167 122.85 166.614C122.85 167.06 122.761 167.502 122.59 167.915C122.419 168.327 122.168 168.702 121.852 169.017L110.596 180.235C113.744 180.849 116.999 180.607 120.022 179.535C123.045 178.462 125.725 176.599 127.782 174.138C129.84 171.678 131.2 168.71 131.72 165.546C132.24 162.381 131.902 159.134 130.741 156.144V156.167Z" fill="white" stroke="#2E353A" stroke-miterlimit="10"/>
<path d="M126.357 150.339C125.921 149.903 125.677 149.312 125.677 148.695C125.677 148.079 125.921 147.487 126.357 147.051L177.554 97.2448C177.992 96.8091 178.584 96.5645 179.202 96.5645C179.819 96.5645 180.412 96.8091 180.85 97.2448C181.285 97.6826 181.53 98.2751 181.53 98.8927C181.53 99.5103 181.285 100.103 180.85 100.541L129.652 150.339C129.215 150.775 128.622 151.02 128.005 151.02C127.387 151.02 126.794 150.775 126.357 150.339Z" fill="white" stroke="#2E353A" stroke-miterlimit="10"/>
<path d="M141.541 111.792L137.714 115.619L192.933 170.838L196.76 167.011L141.541 111.792Z" fill="white" stroke="#2E353A" stroke-miterlimit="10"/>
<path d="M206.505 171.089L197.011 180.583L189.096 172.676C187.837 171.416 187.129 169.707 187.129 167.925C187.129 166.143 187.837 164.434 189.096 163.174C189.72 162.551 190.46 162.056 191.274 161.719C192.089 161.381 192.962 161.208 193.843 161.208C194.725 161.208 195.598 161.381 196.413 161.719C197.227 162.056 197.967 162.551 198.59 163.174L206.505 171.089Z" fill="white" stroke="#2E353A" stroke-miterlimit="10"/>
<path d="M136.39 101.046L126.967 110.469L134.621 118.123L144.044 108.7L136.39 101.046Z" fill="white" stroke="#2E353A" stroke-miterlimit="10"/>
<path d="M94.4299 71.7468L97.669 68.5077C98.4228 67.7538 99.3178 67.1558 100.303 66.7478C101.288 66.3399 102.343 66.1299 103.41 66.1299C104.476 66.1299 105.531 66.3399 106.516 66.7478C107.501 67.1558 108.396 67.7538 109.15 68.5077L140.803 100.161C141.115 100.473 141.29 100.896 141.29 101.337C141.29 101.778 141.115 102.201 140.803 102.513L128.435 114.881C128.123 115.193 127.7 115.368 127.259 115.368C126.818 115.368 126.395 115.193 126.083 114.881L94.4299 83.2278C92.9074 81.7054 92.0521 79.6404 92.0521 77.4873C92.0521 75.3342 92.9074 73.2692 94.4299 71.7468Z" fill="white" stroke="#2E353A" stroke-miterlimit="10"/>
<path d="M144.925 106.057L131.969 119.013C131.482 119.5 131.482 120.29 131.969 120.777L135.507 124.315C135.994 124.802 136.784 124.802 137.271 124.315L150.227 111.359C150.714 110.872 150.714 110.082 150.227 109.595L146.689 106.057C146.202 105.57 145.412 105.57 144.925 106.057Z" fill="white" stroke="#2E353A" stroke-miterlimit="10"/>
<path d="M130.204 110.178L127.604 112.786L96.5214 81.7036C96.1757 81.3577 95.9815 80.8887 95.9815 80.3996C95.9815 79.9106 96.1757 79.4416 96.5214 79.0957C96.6922 78.9236 96.8953 78.787 97.1191 78.6938C97.3429 78.6006 97.5829 78.5526 97.8254 78.5526C98.0678 78.5526 98.3078 78.6006 98.5316 78.6938C98.7554 78.787 98.9585 78.9236 99.1293 79.0957L130.204 110.178Z" fill="white" stroke="#2E353A" stroke-miterlimit="10"/>
<path d="M134.641 105.741L132.026 108.349L100.943 77.2664C100.598 76.9206 100.403 76.4515 100.403 75.9625C100.403 75.4735 100.598 75.0045 100.943 74.6586C101.114 74.4865 101.317 74.3499 101.541 74.2567C101.765 74.1635 102.005 74.1155 102.247 74.1155C102.49 74.1155 102.73 74.1635 102.954 74.2567C103.177 74.3499 103.381 74.4865 103.551 74.6586L134.641 105.741Z" fill="white" stroke="#2E353A" stroke-miterlimit="10"/>
<path d="M139.079 101.304L136.463 103.889L105.381 72.8293C105.035 72.4834 104.841 72.0144 104.841 71.5254C104.841 71.0363 105.035 70.5673 105.381 70.2215C105.551 70.0494 105.754 69.9128 105.978 69.8195C106.202 69.7263 106.442 69.6783 106.684 69.6783C106.927 69.6783 107.167 69.7263 107.391 69.8195C107.615 69.9128 107.818 70.0494 107.988 70.2215L139.079 101.304Z" fill="white" stroke="#2E353A" stroke-miterlimit="10"/>
<path d="M243.121 247.563H240.603L224.329 114.026H226.854L243.121 247.563Z" fill="white" stroke="#2E353A" stroke-miterlimit="10"/>
<path d="M262.774 247.563H260.257L243.982 114.026H246.507L262.774 247.563Z" fill="white" stroke="#2E353A" stroke-miterlimit="10"/>
<path d="M246.666 125.092H227.02L226.513 120.973H246.167L246.666 125.092Z" fill="white" stroke="#2E353A" stroke-miterlimit="10"/>
<path d="M248.518 140.301H228.872L228.373 136.181H248.019L248.518 140.301Z" fill="white" stroke="#2E353A" stroke-miterlimit="10"/>
<path d="M250.377 155.51H230.724L230.225 151.39H249.871L250.377 155.51Z" fill="white" stroke="#2E353A" stroke-miterlimit="10"/>
<path d="M252.229 170.726H232.583L232.077 166.606H251.723L252.229 170.726Z" fill="white" stroke="#2E353A" stroke-miterlimit="10"/>
<path d="M254.081 185.934H234.435L233.929 181.815H253.575L254.081 185.934Z" fill="white" stroke="#2E353A" stroke-miterlimit="10"/>
<path d="M255.933 201.143H236.287L235.788 197.023H255.434L255.933 201.143Z" fill="white" stroke="#2E353A" stroke-miterlimit="10"/>
<path d="M257.785 216.359H238.139L237.64 212.24H257.286L257.785 216.359Z" fill="white" stroke="#2E353A" stroke-miterlimit="10"/>
<path d="M259.644 231.568H239.991L239.492 227.448H259.138L259.644 231.568Z" fill="white" stroke="#2E353A" stroke-miterlimit="10"/>
<path d="M226.718 122.59H229.288" stroke="#2E353A" stroke-width="0.5" stroke-miterlimit="10"/>
<path d="M227.322 123.8H232.311" stroke="#2E353A" stroke-width="0.5" stroke-miterlimit="10"/>
<path d="M246.363 123.8H242.735" stroke="#2E353A" stroke-width="0.5" stroke-miterlimit="10"/>
<path d="M248.178 138.456H244.852" stroke="#2E353A" stroke-width="0.5" stroke-miterlimit="10"/>
<path d="M229.136 139.212H236.847" stroke="#2E353A" stroke-width="0.5" stroke-miterlimit="10"/>
<path d="M230.497 153.416H237.149" stroke="#2E353A" stroke-width="0.5" stroke-miterlimit="10"/>
<path d="M230.799 154.625H234.428" stroke="#2E353A" stroke-width="0.5" stroke-miterlimit="10"/>
<path d="M252.101 168.375H248.026" stroke="#2E353A" stroke-width="0.5" stroke-miterlimit="10"/>
<path d="M251.806 169.584H245.003" stroke="#2E353A" stroke-width="0.5" stroke-miterlimit="10"/>
<path d="M257.725 214.81H251.488" stroke="#2E353A" stroke-width="0.5" stroke-miterlimit="10"/>
<path d="M237.882 213.676H241.662" stroke="#2E353A" stroke-width="0.5" stroke-miterlimit="10"/>
<path d="M250.543 214.81H245.63" stroke="#2E353A" stroke-width="0.5" stroke-miterlimit="10"/>
<path d="M239.772 229.361H245.063" stroke="#2E353A" stroke-width="0.5" stroke-miterlimit="10"/>
<path d="M240.906 230.684H246.953" stroke="#2E353A" stroke-width="0.5" stroke-miterlimit="10"/>
<path d="M234.859 184.574H236.559" stroke="#2E353A" stroke-width="0.5" stroke-miterlimit="10"/>
<path d="M253.378 184.196H247.142" stroke="#2E353A" stroke-width="0.5" stroke-miterlimit="10"/>
<path d="M95.8336 167.717L92.8403 171.618L27.7271 120.783L30.728 116.883L95.8336 167.717Z" fill="#2E353A" stroke="#2E353A" stroke-width="1.09543" stroke-linecap="round" stroke-linejoin="round"/>
<path d="M27.7271 167.717L30.728 171.618L95.8336 120.783L92.8403 116.883L27.7271 167.717Z" fill="#2E353A" stroke="#2E353A" stroke-width="1.09543" stroke-linecap="round" stroke-linejoin="round"/>
<path d="M95.8336 224.818L93.9817 229.845L27.7271 177.884L29.6244 172.812L95.8336 224.818Z" fill="#2E353A" stroke="#2E353A" stroke-width="1.09543" stroke-linecap="round" stroke-linejoin="round"/>
<path d="M27.7271 224.818L28.1807 230.714L95.8336 177.884L92.8403 173.991L27.7271 224.818Z" fill="#2E353A" stroke="#2E353A" stroke-width="1.09543" stroke-linecap="round" stroke-linejoin="round"/>
<path d="M29.2616 116.346H26.6159V247.571H29.2616V116.346Z" fill="#2E353A" stroke="#2E353A" stroke-width="1.09543" stroke-linecap="round" stroke-linejoin="round"/>
<path d="M96.1964 116.346H93.5508V247.571H96.1964V116.346Z" fill="#2E353A" stroke="#2E353A" stroke-width="1.09543" stroke-linecap="round" stroke-linejoin="round"/>
<path d="M83.0967 167.717L80.0958 171.618L14.9902 120.783L17.9835 116.883L83.0967 167.717Z" fill="white" stroke="#2E353A" stroke-width="1.09543" stroke-linecap="round" stroke-linejoin="round"/>
<path d="M14.9902 167.717L17.9835 171.618L83.0967 120.783L80.0958 116.883L14.9902 167.717Z" fill="white" stroke="#2E353A" stroke-width="1.09543" stroke-linecap="round" stroke-linejoin="round"/>
<path d="M83.0967 224.818L81.2372 229.845L14.9902 177.884L15.9426 172.812L83.0967 224.818Z" fill="white" stroke="#2E353A" stroke-width="1.09543" stroke-linecap="round" stroke-linejoin="round"/>
<path d="M14.9902 224.818L15.4437 230.714L83.0967 177.884L80.0958 173.991L14.9902 224.818Z" fill="white" stroke="#2E353A" stroke-width="1.09543" stroke-linecap="round" stroke-linejoin="round"/>
<path d="M16.5171 116.346H13.8715V247.571H16.5171V116.346Z" fill="white" stroke="#2E353A" stroke-width="1.09543" stroke-linecap="round" stroke-linejoin="round"/>
<path d="M83.452 116.346H80.8063V247.571H83.452V116.346Z" fill="white" stroke="#2E353A" stroke-width="1.09543" stroke-linecap="round" stroke-linejoin="round"/>
<path d="M86.8611 115.129H10.4699V119.287H86.8611V115.129Z" fill="white" stroke="#2E353A" stroke-width="1.09543" stroke-linecap="round" stroke-linejoin="round"/>
<path d="M98.6304 115.129H77.4275V119.287H98.6304V115.129Z" fill="#2E353A" stroke="#2E353A" stroke-width="1.09543" stroke-linecap="round" stroke-linejoin="round"/>
<path d="M86.8611 169.584H10.4699V173.742H86.8611V169.584Z" fill="white" stroke="#2E353A" stroke-width="1.09543" stroke-linecap="round" stroke-linejoin="round"/>
<path d="M98.6304 169.584H77.4275V173.742H98.6304V169.584Z" fill="#2E353A" stroke="#2E353A" stroke-width="1.09543" stroke-linecap="round" stroke-linejoin="round"/>
<path d="M182.051 247.563H176.072L184.047 200.841H190.034L182.051 247.563Z" fill="#2E353A" stroke="#2E353A" stroke-width="0.972732" stroke-miterlimit="10"/>
<path d="M194.017 247.563H200.004L192.022 200.841H186.043L194.017 247.563Z" fill="white" stroke="#2E353A" stroke-width="0.972732" stroke-miterlimit="10"/>
<path d="M266.954 247.563H260.975L268.95 200.841H274.929L266.954 247.563Z" fill="#2E353A" stroke="#2E353A" stroke-width="0.972732" stroke-miterlimit="10"/>
<path d="M278.92 247.563H284.907L276.924 200.841H270.945L278.92 247.563Z" fill="white" stroke="#2E353A" stroke-width="0.972732" stroke-miterlimit="10"/>
<path d="M283.108 187.333H168.99V203.184H283.108V187.333Z" fill="#E6284A" stroke="#2E353A" stroke-width="0.972732" stroke-miterlimit="10"/>
<path d="M285.889 187.333H171.771V203.184H285.889V187.333Z" fill="#E6284A" stroke="#2E353A" stroke-width="0.972732" stroke-miterlimit="10"/>
<path d="M173.638 203.184H183.321L188.325 187.333H178.642L173.638 203.184Z" fill="#2E353A"/>
<path d="M211.978 187.333H202.287L197.283 203.184H206.973L211.978 187.333Z" fill="#2E353A"/>
<path d="M282.919 187.333H273.228L268.224 203.184H277.915L282.919 187.333Z" fill="#2E353A"/>
<path d="M259.267 187.333H249.583L244.579 203.184H254.262L259.267 187.333Z" fill="#2E353A"/>
<path d="M235.622 187.333H225.931L220.927 203.184H230.618L235.622 187.333Z" fill="#2E353A"/>
<path d="M285.262 194.37H266.38" stroke="#2E353A" stroke-miterlimit="10"/>
<path d="M284.929 197.016H281.951" stroke="#2E353A" stroke-miterlimit="10"/>
<path d="M171.287 196.358H190.17" stroke="#2E353A" stroke-miterlimit="10"/>
<path d="M171.612 193.373H195.469" stroke="#2E353A" stroke-miterlimit="10"/>
</svg>
