<svg width="296" height="281" viewBox="0 0 296 281" fill="none" xmlns="http://www.w3.org/2000/svg">
<path d="M148 280.989C229.738 280.989 296 244.563 296 199.63C296 154.697 229.738 118.272 148 118.272C66.2619 118.272 0 154.697 0 199.63C0 244.563 66.2619 280.989 148 280.989Z" fill="#F5F5F5"/>
<path d="M175.752 268.461C201.785 268.461 222.89 256.277 222.89 241.248C222.89 226.219 201.785 214.035 175.752 214.035C149.718 214.035 128.613 226.219 128.613 241.248C128.613 256.277 149.718 268.461 175.752 268.461Z" fill="#E0E0E0"/>
<path d="M137.661 208.268L222.656 159.182C223.663 158.604 223.663 157.662 222.656 157.084L185.377 135.561C184.814 135.272 184.191 135.122 183.558 135.122C182.926 135.122 182.303 135.272 181.74 135.561L96.7443 184.68C95.7376 185.258 95.7376 186.199 96.7443 186.777L134.03 208.301C134.594 208.584 135.218 208.729 135.849 208.723C136.481 208.717 137.101 208.562 137.661 208.268Z" fill="#E0E0E0"/>
<path d="M66.0375 218.114L11.7033 186.745C10.7031 186.167 10.7031 185.225 11.7033 184.647L100.134 133.586C100.698 133.301 101.321 133.153 101.953 133.153C102.585 133.153 103.208 133.301 103.771 133.586L158.106 164.955C159.112 165.54 159.112 166.475 158.106 167.06L69.6745 218.114C69.1107 218.399 68.4878 218.547 67.856 218.547C67.2243 218.547 66.6014 218.399 66.0375 218.114Z" fill="#E0E0E0"/>
<path d="M94.6595 128.78L13.0283 175.918C12.7182 176.119 12.46 176.39 12.2749 176.709C12.0898 177.029 11.9829 177.388 11.9631 177.756V179.906C11.9829 180.275 12.0898 180.633 12.2749 180.953C12.46 181.272 12.7182 181.544 13.0283 181.744L66.7 212.736C67.0292 212.903 67.3929 212.99 67.7619 212.99C68.1308 212.99 68.4946 212.903 68.8238 212.736L150.474 165.592C150.783 165.39 151.039 165.118 151.223 164.799C151.407 164.48 151.513 164.122 151.533 163.754V161.604C151.513 161.235 151.406 160.877 151.221 160.557C151.036 160.238 150.778 159.967 150.468 159.766L96.7832 128.78C96.4541 128.614 96.0903 128.527 95.7213 128.527C95.3524 128.527 94.9886 128.614 94.6595 128.78Z" fill="#37474F"/>
<path d="M66.7 208.132L13.0282 177.146C12.9006 177.102 12.7899 177.019 12.7116 176.909C12.6333 176.799 12.5912 176.667 12.5912 176.532C12.5912 176.397 12.6333 176.265 12.7116 176.155C12.7899 176.045 12.9006 175.962 13.0282 175.918L94.6594 128.78C94.9886 128.614 95.3524 128.527 95.7213 128.527C96.0903 128.527 96.454 128.614 96.7832 128.78L150.468 159.766C150.593 159.812 150.702 159.895 150.778 160.004C150.855 160.113 150.896 160.243 150.896 160.377C150.896 160.51 150.855 160.64 150.778 160.749C150.702 160.859 150.593 160.942 150.468 160.987L68.8237 208.132C68.4946 208.298 68.1308 208.385 67.7619 208.385C67.3929 208.385 67.0292 208.298 66.7 208.132Z" fill="#455A64"/>
<path d="M67.8301 208.385V212.983C67.4409 213.004 67.0532 212.921 66.7065 212.743L13.0218 181.744C12.7141 181.543 12.458 181.273 12.2741 180.954C12.0903 180.636 11.9837 180.279 11.9631 179.913V177.763C11.9813 177.434 12.0674 177.112 12.216 176.818C12.3647 176.524 12.5727 176.264 12.8269 176.055C12.4502 176.399 12.5152 176.847 13.0218 177.139L66.7065 208.132C67.052 208.314 67.4398 208.402 67.8301 208.385Z" fill="#263238"/>
<path d="M137.648 164.221L135.413 165.52L143.343 105.692L145.584 104.399L137.648 164.221Z" fill="#E0E0E0"/>
<path d="M135.413 165.52L87.5673 137.905L95.4973 78.0829L143.343 105.692L135.413 165.52Z" fill="#FAFAFA"/>
<path d="M145.584 104.399L143.343 105.692L95.4973 78.083L97.7704 76.7711L145.584 104.399Z" fill="#EBEBEB"/>
<path d="M140.843 106.594L96.9911 81.2848L89.795 135.95L133.647 161.221L140.843 106.594Z" fill="#E62B4A"/>
<path opacity="0.8" d="M140.843 106.594L96.9911 81.2848L89.795 135.95L133.647 161.221L140.843 106.594Z" fill="white"/>
<path d="M94.4971 114.895L105.752 104.23C106.928 103.12 108.318 103.464 108.837 104.997L116.904 128.754C116.942 128.88 117.027 128.988 117.14 129.055C117.253 129.123 117.388 129.146 117.517 129.12C117.647 129.094 117.762 129.021 117.84 128.915C117.919 128.809 117.956 128.678 117.943 128.546L117.592 123.539L124.769 118.486C125.063 118.264 125.403 118.111 125.764 118.038C126.125 117.965 126.498 117.974 126.855 118.065C127.212 118.155 127.545 118.324 127.828 118.56C128.111 118.796 128.337 119.093 128.49 119.428L136.933 136.314L133.933 159.045L91.7888 134.755L94.4971 114.895Z" fill="#E62B4A"/>
<path d="M132.653 106.744C130.705 105.601 128.821 106.38 128.516 108.478C128.211 110.576 129.594 113.213 131.595 114.369C133.595 115.525 135.446 114.752 135.732 112.641C136.017 110.53 134.634 107.874 132.653 106.744Z" fill="#E62B4A"/>
<path d="M98.9784 82.4409L91.7888 134.755L89.8015 135.911L96.991 81.2848L98.9784 82.4409Z" fill="#E0E0E0"/>
<path d="M91.7888 134.755L133.933 159.071L133.647 161.221L89.8015 135.911L91.7888 134.755Z" fill="#EBEBEB"/>
<path d="M125.749 171.119L123.509 172.411L131.445 112.589L133.686 111.297L125.749 171.119Z" fill="#E0E0E0"/>
<path d="M123.509 172.411L75.6626 144.796L83.5926 84.9738L131.445 112.589L123.509 172.411Z" fill="#FAFAFA"/>
<path d="M133.686 111.297L131.445 112.589L83.5926 84.9738L85.8657 83.6619L133.686 111.297Z" fill="#EBEBEB"/>
<path d="M128.945 113.485L85.0929 88.1821L77.8968 142.841L121.749 168.118L128.945 113.485Z" fill="#E62B4A"/>
<path opacity="0.8" d="M128.945 113.485L85.0929 88.1821L77.8968 142.841L121.749 168.118L128.945 113.485Z" fill="white"/>
<path d="M82.5924 121.785L93.8412 111.128C95.0167 110.011 96.439 110.355 96.9261 111.888L104.992 135.645C105.031 135.771 105.115 135.878 105.229 135.946C105.342 136.014 105.477 136.037 105.606 136.011C105.735 135.985 105.851 135.912 105.929 135.806C106.008 135.7 106.044 135.569 106.032 135.437L105.681 130.43L112.857 125.383C113.152 125.162 113.493 125.008 113.854 124.935C114.216 124.863 114.589 124.872 114.947 124.962C115.305 125.052 115.637 125.222 115.921 125.458C116.204 125.693 116.432 125.99 116.585 126.325L125.028 143.211L122.034 165.943L79.8842 141.633L82.5924 121.785Z" fill="#E62B4A"/>
<path d="M120.748 113.628C118.768 112.485 116.923 113.258 116.618 115.356C116.313 117.453 117.689 120.097 119.696 121.253C121.703 122.409 123.548 121.63 123.827 119.519C124.106 117.408 122.729 114.771 120.748 113.628Z" fill="#E62B4A"/>
<path d="M87.0802 89.3317L79.8842 141.653L77.9033 142.802L85.0929 88.1821L87.0802 89.3317Z" fill="#E0E0E0"/>
<path d="M79.8842 141.653L122.028 165.962L121.749 168.118L77.9033 142.802L79.8842 141.653Z" fill="#EBEBEB"/>
<path d="M113.845 178.016L111.611 179.309L119.54 119.486L121.781 118.187L113.845 178.016Z" fill="#E0E0E0"/>
<path d="M111.61 179.309L63.7579 151.693L71.6944 91.8711L119.54 119.486L111.61 179.309Z" fill="#FAFAFA"/>
<path d="M121.781 118.187L119.54 119.486L71.6944 91.8711L73.9675 90.5592L121.781 118.187Z" fill="#EBEBEB"/>
<path d="M117.04 120.383L73.1882 95.0729L65.9921 149.738L109.844 175.009L117.04 120.383Z" fill="#E62B4A"/>
<path opacity="0.8" d="M117.04 120.383L73.1882 95.0729L65.9921 149.738L109.844 175.009L117.04 120.383Z" fill="white"/>
<path d="M70.6812 128.683L81.93 118.019C83.1055 116.908 84.4888 117.252 85.0149 118.785L93.0748 142.542C93.1135 142.668 93.1978 142.776 93.3111 142.843C93.4245 142.911 93.5589 142.934 93.6883 142.908C93.8177 142.882 93.9329 142.809 94.0115 142.703C94.0902 142.597 94.1266 142.466 94.1139 142.334L93.7632 137.327L100.946 132.274C101.24 132.052 101.581 131.899 101.942 131.826C102.303 131.753 102.676 131.762 103.033 131.853C103.39 131.943 103.722 132.113 104.005 132.349C104.288 132.584 104.515 132.881 104.668 133.216L113.111 150.102L110.117 172.833L67.973 148.524L70.6812 128.683Z" fill="#E62B4A"/>
<path d="M108.85 120.519C106.869 119.376 105.018 120.155 104.713 122.253C104.408 124.351 105.791 126.988 107.792 128.144C109.792 129.3 111.643 128.527 111.922 126.416C112.202 124.305 110.825 121.682 108.85 120.519Z" fill="#E62B4A"/>
<path d="M75.1755 96.229L67.9859 148.55L65.9986 149.699L73.1881 95.0729L75.1755 96.229Z" fill="#E0E0E0"/>
<path d="M67.9859 148.55L110.13 172.859L109.844 175.009L65.9986 149.699L67.9859 148.55Z" fill="#EBEBEB"/>
<path d="M101.94 184.907L99.7058 186.199L107.642 126.377L109.876 125.085L101.94 184.907Z" fill="#E0E0E0"/>
<path d="M99.7058 186.199L51.8597 158.584L59.7897 98.7619L107.642 126.377L99.7058 186.199Z" fill="#FAFAFA"/>
<path d="M109.876 125.085L107.642 126.377L59.7897 98.7619L62.0628 97.45L109.876 125.085Z" fill="#EBEBEB"/>
<path d="M105.142 127.273L61.29 101.97L54.0939 156.629L97.9458 181.906L105.142 127.273Z" fill="#E62B4A"/>
<path opacity="0.8" d="M105.142 127.273L61.29 101.97L54.0939 156.629L97.9458 181.906L105.142 127.273Z" fill="white"/>
<path d="M58.7895 135.574L70.0318 124.929C71.2073 123.818 72.6296 124.156 73.1167 125.689L81.1831 149.446C81.2218 149.572 81.3061 149.68 81.4194 149.747C81.5328 149.815 81.6672 149.838 81.7966 149.812C81.926 149.786 82.0412 149.713 82.1198 149.607C82.1985 149.501 82.235 149.37 82.2222 149.238L81.8715 144.231L89.0156 139.185C89.3102 138.963 89.6509 138.81 90.0125 138.737C90.374 138.664 90.7474 138.673 91.105 138.763C91.4627 138.853 91.7955 139.023 92.0791 139.259C92.3626 139.495 92.5897 139.791 92.7435 140.126L101.187 157.012L98.1861 179.744L56.0813 155.454L58.7895 135.574Z" fill="#E62B4A"/>
<path d="M96.9456 127.416C94.9647 126.273 93.1137 127.046 92.815 129.144C92.5162 131.242 93.8866 133.885 95.887 135.041C97.8873 136.197 99.7448 135.424 100.024 133.307C100.303 131.19 98.9265 128.559 96.9456 127.416Z" fill="#E62B4A"/>
<path d="M63.2708 103.126L56.0813 155.441L54.0939 156.59L61.29 101.97L63.2708 103.126Z" fill="#E0E0E0"/>
<path d="M56.0813 155.441L98.225 179.75L97.9458 181.906L54.0939 156.59L56.0813 155.441Z" fill="#EBEBEB"/>
<path d="M90.0418 191.798L87.8076 193.097L95.7376 133.268L97.9782 131.976L90.0418 191.798Z" fill="#E0E0E0"/>
<path d="M87.8076 193.097L39.955 165.481L47.8915 105.659L95.7375 133.268L87.8076 193.097Z" fill="#FAFAFA"/>
<path d="M97.9782 131.976L95.7375 133.268L47.8915 105.659L50.1581 104.347L97.9782 131.976Z" fill="#EBEBEB"/>
<path d="M93.2371 134.171L49.3853 108.861L42.1892 163.527L86.0411 188.797L93.2371 134.171Z" fill="#E62B4A"/>
<path opacity="0.8" d="M93.2371 134.171L49.3853 108.861L42.1892 163.527L86.0411 188.797L93.2371 134.171Z" fill="white"/>
<path d="M46.8913 142.464L58.14 131.8C59.3156 130.69 60.6989 131.034 61.2185 132.567L69.2849 156.324C69.3236 156.45 69.4078 156.557 69.5212 156.625C69.6345 156.693 69.769 156.716 69.8984 156.69C70.0278 156.664 70.143 156.591 70.2216 156.485C70.3002 156.379 70.3367 156.247 70.324 156.116L69.9733 151.109L77.1758 146.062C77.4703 145.846 77.8093 145.697 78.1683 145.627C78.5273 145.557 78.8973 145.568 79.2516 145.659C79.6059 145.75 79.9356 145.918 80.2168 146.152C80.498 146.386 80.7238 146.679 80.8778 147.011L89.3208 163.897L86.3268 186.628L44.183 162.338L46.8913 142.464Z" fill="#E62B4A"/>
<path d="M85.0409 134.307C83.0925 133.171 81.2155 133.943 80.9103 136.041C80.605 138.139 81.9884 140.776 83.9888 141.932C85.9891 143.088 87.8401 142.315 88.1193 140.204C88.3986 138.094 87.0217 135.45 85.0409 134.307Z" fill="#E62B4A"/>
<path d="M51.3726 110.017L44.1831 162.338L42.1957 163.488L49.3853 108.861L51.3726 110.017Z" fill="#E0E0E0"/>
<path d="M44.1831 162.338L86.3268 186.647L86.0411 188.797L42.1957 163.488L44.1831 162.338Z" fill="#EBEBEB"/>
<path d="M78.1371 198.695L75.9029 199.987L83.8329 140.165L86.0735 138.873L78.1371 198.695Z" fill="#E0E0E0"/>
<path d="M75.9029 199.987L28.0569 172.372L35.9868 112.55L83.8329 140.165L75.9029 199.987Z" fill="#FAFAFA"/>
<path d="M86.0735 138.873L83.8329 140.165L35.9868 112.55L38.2599 111.238L86.0735 138.873Z" fill="#EBEBEB"/>
<path d="M81.3325 141.062L37.4871 115.758L30.2845 170.417L74.1364 195.694L81.3325 141.062Z" fill="#E62B4A"/>
<path opacity="0.8" d="M81.3325 141.062L37.4871 115.758L30.2845 170.417L74.1364 195.694L81.3325 141.062Z" fill="white"/>
<path d="M34.9607 149.362L46.2094 138.704C47.3849 137.593 48.8073 137.931 49.2944 139.464L57.3867 163.247C57.4254 163.373 57.5097 163.481 57.623 163.548C57.7364 163.616 57.8708 163.639 58.0002 163.613C58.1296 163.587 58.2448 163.514 58.3234 163.408C58.4021 163.302 58.4386 163.171 58.4258 163.039L58.0751 158.032L65.2192 152.986C65.5133 152.764 65.8535 152.611 66.2146 152.538C66.5757 152.465 66.9486 152.474 67.3057 152.564C67.6629 152.655 67.9952 152.824 68.2782 153.06C68.5611 153.296 68.7875 153.592 68.9407 153.927L77.3837 170.814L74.3832 193.545L32.2784 169.229L34.9607 149.362Z" fill="#E62B4A"/>
<path d="M73.1427 141.204C71.1943 140.061 69.3109 140.834 69.0121 142.939C68.7134 145.043 70.0837 147.673 72.0841 148.829C74.0844 149.985 75.9354 149.212 76.2212 147.095C76.5069 144.978 75.1236 142.347 73.1427 141.204Z" fill="#E62B4A"/>
<path d="M39.468 116.914L32.2784 169.229L30.291 170.385L37.4871 115.758L39.468 116.914Z" fill="#E0E0E0"/>
<path d="M32.2784 169.229L74.4221 193.538L74.1364 195.695L30.291 170.385L32.2784 169.229Z" fill="#EBEBEB"/>
<path d="M94.6595 53.215L13.0283 100.353C12.7173 100.554 12.4586 100.826 12.2735 101.147C12.0883 101.468 11.9819 101.828 11.9631 102.198V104.347C11.983 104.717 12.0898 105.077 12.2748 105.397C12.4599 105.718 12.7181 105.99 13.0283 106.192L66.7 137.178C67.0292 137.344 67.3929 137.431 67.7619 137.431C68.1308 137.431 68.4946 137.344 68.8238 137.178L150.474 90.0331C150.783 89.8311 151.039 89.5595 151.223 89.2403C151.407 88.921 151.513 88.563 151.533 88.1951V86.0454C151.513 85.6767 151.406 85.3179 151.221 84.9984C151.036 84.679 150.778 84.4079 150.468 84.2074L96.7832 53.2214C96.4546 53.0538 96.0911 52.9659 95.7221 52.9647C95.3532 52.9636 94.9892 53.0493 94.6595 53.215Z" fill="#37474F"/>
<path d="M66.7 132.567L13.0282 101.581C12.9006 101.536 12.7899 101.454 12.7116 101.344C12.6333 101.234 12.5912 101.102 12.5912 100.967C12.5912 100.832 12.6333 100.7 12.7116 100.59C12.7899 100.48 12.9006 100.397 13.0282 100.353L94.6594 53.215C94.9886 53.0483 95.3524 52.9615 95.7213 52.9615C96.0903 52.9615 96.454 53.0483 96.7832 53.215L150.468 84.2009C151.059 84.5386 151.059 85.0842 150.468 85.4284L68.8237 132.567C68.4955 132.736 68.1314 132.825 67.7619 132.825C67.3923 132.825 67.0282 132.736 66.7 132.567Z" fill="#455A64"/>
<path d="M67.8301 132.82V137.425C67.4406 137.44 67.0537 137.355 66.7065 137.178L13.0218 106.179C12.7141 105.978 12.458 105.707 12.2741 105.389C12.0903 105.071 11.9837 104.714 11.9631 104.347V102.198C11.9813 101.869 12.0674 101.547 12.216 101.253C12.3647 100.959 12.5727 100.699 12.8269 100.489C12.4502 100.834 12.5152 101.282 13.0218 101.581L66.7065 132.567C67.0509 132.752 67.4395 132.839 67.8301 132.82Z" fill="#263238"/>
<path d="M137.648 88.1691L135.413 89.4616L143.343 29.6394L145.584 28.347L137.648 88.1691Z" fill="#E0E0E0"/>
<path d="M135.413 89.4616L87.5673 61.8463L95.4973 2.02414L143.343 29.6394L135.413 89.4616Z" fill="#FAFAFA"/>
<path d="M145.584 28.347L143.343 29.6394L95.4973 2.02417L97.7704 0.71225L145.584 28.347Z" fill="#EBEBEB"/>
<path d="M140.843 30.5357L96.9911 5.23251L89.795 59.8915L133.647 85.1686L140.843 30.5357Z" fill="#E62B4A"/>
<path opacity="0.8" d="M140.843 30.5357L96.9911 5.23251L89.795 59.8915L133.647 85.1686L140.843 30.5357Z" fill="white"/>
<path d="M94.4971 38.8358L105.752 28.1586C106.928 27.0415 108.318 27.3858 108.837 28.9185L116.904 52.6759C116.942 52.8021 117.027 52.9093 117.14 52.9769C117.253 53.0445 117.388 53.0676 117.517 53.0417C117.647 53.0158 117.762 52.9428 117.84 52.8368C117.919 52.7308 117.956 52.5994 117.943 52.4681L117.592 47.4607L124.762 42.4468C125.055 42.2235 125.395 42.0691 125.756 41.995C126.117 41.921 126.49 41.9291 126.848 42.019C127.205 42.1088 127.538 42.278 127.821 42.514C128.104 42.7499 128.331 43.0466 128.484 43.3821L136.927 60.2682L133.926 82.9994L91.7888 58.6835L94.4971 38.8358Z" fill="#E62B4A"/>
<path d="M132.653 30.6785C130.705 29.5355 128.821 30.3083 128.516 32.4061C128.211 34.5039 129.594 37.1472 131.595 38.3032C133.595 39.4593 135.446 38.6799 135.732 36.5692C136.017 34.4584 134.634 31.8216 132.653 30.6785Z" fill="#E62B4A"/>
<path d="M98.9784 6.38207L91.7888 58.7029L89.8015 59.8525L96.991 5.23251L98.9784 6.38207Z" fill="#E0E0E0"/>
<path d="M91.7888 58.7029L133.933 83.0124L133.647 85.1686L89.8015 59.8525L91.7888 58.7029Z" fill="#EBEBEB"/>
<path d="M125.749 95.06L123.509 96.3524L131.445 36.5302L133.686 35.2378L125.749 95.06Z" fill="#E0E0E0"/>
<path d="M123.509 96.3524L75.6626 68.7437L83.5926 8.92148L131.445 36.5302L123.509 96.3524Z" fill="#FAFAFA"/>
<path d="M133.686 35.2378L131.445 36.5302L83.5926 8.92148L85.8657 7.60956L133.686 35.2378Z" fill="#EBEBEB"/>
<path d="M128.945 37.433L85.0929 12.1233L77.8968 66.7823L121.749 92.0594L128.945 37.433Z" fill="#E62B4A"/>
<path opacity="0.8" d="M128.945 37.433L85.0929 12.1233L77.8968 66.7823L121.749 92.0594L128.945 37.433Z" fill="white"/>
<path d="M82.5924 45.7266L93.8412 35.0689C95.0167 33.9583 96.439 34.3026 96.9261 35.8353L104.992 59.5927C105.031 59.7203 105.115 59.8288 105.23 59.8971C105.344 59.9653 105.48 59.9883 105.61 59.9614C105.741 59.9345 105.856 59.8597 105.934 59.7518C106.012 59.6439 106.047 59.5107 106.032 59.3784L105.681 54.3775L112.857 49.3247C113.152 49.1027 113.493 48.9496 113.854 48.8767C114.216 48.8037 114.589 48.8128 114.947 48.9031C115.305 48.9935 115.637 49.1628 115.921 49.3987C116.204 49.6347 116.432 49.9312 116.585 50.2664L125.028 67.1525L122.034 89.8837L79.8842 65.5743L82.5924 45.7266Z" fill="#E62B4A"/>
<path d="M120.748 37.5694C118.768 36.4263 116.923 37.2057 116.618 39.3034C116.313 41.4012 117.689 44.038 119.696 45.1941C121.703 46.3501 123.548 45.5773 123.827 43.4665C124.106 41.3557 122.729 38.7124 120.748 37.5694Z" fill="#E62B4A"/>
<path d="M87.0802 13.2794L79.8842 65.5938L77.9033 66.7498L85.0929 12.1233L87.0802 13.2794Z" fill="#E0E0E0"/>
<path d="M79.8842 65.5938L122.028 89.9032L121.749 92.0594L77.9033 66.7498L79.8842 65.5938Z" fill="#EBEBEB"/>
<path d="M113.845 101.957L111.611 103.25L119.54 43.4275L121.781 42.1351L113.845 101.957Z" fill="#E0E0E0"/>
<path d="M111.61 103.25L63.7579 75.6345L71.6944 15.8123L119.54 43.4275L111.61 103.25Z" fill="#FAFAFA"/>
<path d="M121.781 42.1351L119.54 43.4275L71.6944 15.8123L73.9675 14.5004L121.781 42.1351Z" fill="#EBEBEB"/>
<path d="M117.04 44.3238L73.1882 19.0142L65.9921 73.6796L109.844 98.9503L117.04 44.3238Z" fill="#E62B4A"/>
<path opacity="0.8" d="M117.04 44.3238L73.1882 19.0142L65.9921 73.6796L109.844 98.9503L117.04 44.3238Z" fill="white"/>
<path d="M70.6812 52.6239L81.93 41.9662C83.1055 40.8492 84.4889 41.1934 85.0149 42.7261L93.0878 66.477C93.1265 66.6032 93.2108 66.7104 93.3241 66.778C93.4375 66.8456 93.5719 66.8687 93.7013 66.8428C93.8307 66.8169 93.9459 66.7439 94.0245 66.6379C94.1032 66.532 94.1397 66.4005 94.1269 66.2692L93.7762 61.2618L100.959 56.2155C101.253 55.9922 101.592 55.8377 101.953 55.7637C102.314 55.6896 102.688 55.6978 103.045 55.7876C103.403 55.8775 103.735 56.0466 104.018 56.2826C104.302 56.5186 104.528 56.8153 104.681 57.1507L113.124 74.0368L110.13 96.7681L67.986 72.4586L70.6812 52.6239Z" fill="#E62B4A"/>
<path d="M108.85 44.4666C106.869 43.3236 105.018 44.0964 104.713 46.1942C104.408 48.292 105.791 50.9353 107.792 52.0914C109.792 53.2474 111.643 52.4681 111.922 50.3573C112.202 48.2465 110.825 45.6097 108.85 44.4666Z" fill="#E62B4A"/>
<path d="M75.1755 20.1702L67.9859 72.4911L65.9986 73.6406L73.1881 19.0142L75.1755 20.1702Z" fill="#E0E0E0"/>
<path d="M67.9859 72.4911L110.13 96.8005L109.844 98.9503L65.9986 73.6406L67.9859 72.4911Z" fill="#EBEBEB"/>
<path d="M101.94 108.848L99.7058 110.141L107.642 50.3183L109.876 49.0259L101.94 108.848Z" fill="#E0E0E0"/>
<path d="M99.7058 110.141L51.8597 82.5318L59.7897 22.7096L107.642 50.3183L99.7058 110.141Z" fill="#FAFAFA"/>
<path d="M109.876 49.0259L107.642 50.3183L59.7897 22.7096L62.0628 21.3977L109.876 49.0259Z" fill="#EBEBEB"/>
<path d="M105.142 51.2146L61.29 25.9115L54.0939 80.5704L97.9458 105.848L105.142 51.2146Z" fill="#E62B4A"/>
<path opacity="0.8" d="M105.142 51.2146L61.29 25.9115L54.0939 80.5704L97.9458 105.848L105.142 51.2146Z" fill="white"/>
<path d="M58.7895 59.5148L70.0318 48.8571C71.2073 47.7465 72.6296 48.0907 73.1167 49.6234L81.1831 73.3809C81.2218 73.507 81.3061 73.6143 81.4194 73.6819C81.5328 73.7494 81.6672 73.7725 81.7966 73.7466C81.926 73.7208 82.0412 73.6477 82.1198 73.5418C82.1985 73.4358 82.235 73.3044 82.2222 73.173L81.8715 68.1657L89.0156 63.1128C89.3102 62.8909 89.6509 62.7378 90.0125 62.6648C90.374 62.5919 90.7474 62.6009 91.105 62.6913C91.4627 62.7816 91.7955 62.951 92.079 63.1869C92.3626 63.4228 92.5897 63.7193 92.7435 64.0545L101.187 80.9406L98.1861 103.672L56.0423 79.3559L58.7895 59.5148Z" fill="#E62B4A"/>
<path d="M96.9456 51.3575C94.9647 50.2144 93.1137 50.9938 92.815 53.0916C92.5162 55.1893 93.8866 57.8262 95.887 58.9822C97.8873 60.1383 99.7448 59.3654 100.024 57.2546C100.303 55.1439 98.9265 52.5006 96.9456 51.3575Z" fill="#E62B4A"/>
<path d="M63.2708 27.0675L56.0813 79.3819L54.0939 80.5379L61.29 25.9115L63.2708 27.0675Z" fill="#E0E0E0"/>
<path d="M56.0813 79.3819L98.225 103.698L97.9458 105.848L54.0939 80.5379L56.0813 79.3819Z" fill="#EBEBEB"/>
<path d="M90.0418 115.745L87.8076 117.038L95.7376 57.2157L97.9782 55.9232L90.0418 115.745Z" fill="#E0E0E0"/>
<path d="M87.8076 117.038L39.9551 89.4226L47.8915 29.6004L95.7376 57.2157L87.8076 117.038Z" fill="#FAFAFA"/>
<path d="M97.9783 55.9232L95.7376 57.2156L47.8915 29.6004L50.1582 28.2885L97.9783 55.9232Z" fill="#EBEBEB"/>
<path d="M93.2371 58.1119L49.3853 32.8088L42.1892 87.4677L86.0411 112.745L93.2371 58.1119Z" fill="#E62B4A"/>
<path opacity="0.8" d="M93.2371 58.1119L49.3853 32.8088L42.1892 87.4677L86.0411 112.745L93.2371 58.1119Z" fill="white"/>
<path d="M46.8913 66.4121L58.14 55.7544C59.3156 54.6373 60.6989 54.9815 61.2185 56.5143L69.2849 80.2717C69.3236 80.3978 69.4078 80.5051 69.5212 80.5727C69.6345 80.6403 69.769 80.6633 69.8984 80.6375C70.0278 80.6116 70.143 80.5386 70.2216 80.4326C70.3002 80.3266 70.3367 80.1952 70.324 80.0638L69.9733 75.0565L77.1758 70.0101C77.4696 69.7868 77.8099 69.6323 78.1714 69.5583C78.533 69.4842 78.9065 69.4923 79.2645 69.5821C79.6224 69.6719 79.9556 69.8411 80.2394 70.0771C80.5231 70.313 80.7502 70.6098 80.9038 70.9454L89.3468 87.8314L86.3528 110.563L44.183 86.2792L46.8913 66.4121Z" fill="#E62B4A"/>
<path d="M85.0409 58.2548C83.0925 57.1117 81.2156 57.8846 80.9103 59.9824C80.6051 62.0801 81.9884 64.7235 83.9888 65.8795C85.9891 67.0356 87.8401 66.2562 88.1194 64.1454C88.3986 62.0347 87.0218 59.3979 85.0409 58.2548Z" fill="#E62B4A"/>
<path d="M51.3726 33.9583L44.1831 86.2792L42.1957 87.4287L49.3853 32.8088L51.3726 33.9583Z" fill="#E0E0E0"/>
<path d="M44.1831 86.2792L86.3268 110.589L86.0411 112.745L42.1957 87.4288L44.1831 86.2792Z" fill="#EBEBEB"/>
<path d="M78.1371 122.636L75.9029 123.929L83.8329 64.1065L86.0735 62.8141L78.1371 122.636Z" fill="#E0E0E0"/>
<path d="M75.9029 123.929L28.0569 96.3199L35.9868 36.4977L83.8329 64.1065L75.9029 123.929Z" fill="#FAFAFA"/>
<path d="M86.0735 62.814L83.8329 64.1065L35.9868 36.4977L38.2599 35.1858L86.0735 62.814Z" fill="#EBEBEB"/>
<path d="M81.3325 65.0092L37.4871 39.6996L30.2845 94.3585L74.1364 119.636L81.3325 65.0092Z" fill="#E62B4A"/>
<path opacity="0.8" d="M81.3325 65.0092L37.4871 39.6996L30.2845 94.3585L74.1364 119.636L81.3325 65.0092Z" fill="white"/>
<path d="M34.9607 73.3094L46.2354 62.6452C47.4109 61.5346 48.8332 61.8788 49.3203 63.4116L57.3867 87.169C57.4254 87.2951 57.5097 87.4024 57.623 87.47C57.7364 87.5376 57.8708 87.5606 58.0002 87.5348C58.1296 87.5089 58.2448 87.4359 58.3234 87.3299C58.4021 87.2239 58.4386 87.0925 58.4258 86.9611L58.0751 81.9538L65.2192 76.9009C65.5133 76.679 65.8535 76.5259 66.2146 76.453C66.5757 76.3801 66.9486 76.3891 67.3057 76.4795C67.6629 76.5699 67.9952 76.7393 68.2782 76.9752C68.5611 77.2111 68.7875 77.5076 68.9407 77.8427L77.3837 94.7287L74.3832 117.46L32.2784 93.17L34.9607 73.3094Z" fill="#E62B4A"/>
<path d="M73.1427 65.1781C71.1943 64.0351 69.3109 64.8144 69.0121 66.9122C68.7134 69.01 70.0837 71.6468 72.0841 72.8028C74.0844 73.9589 75.9354 73.186 76.2212 71.0753C76.5069 68.9645 75.1236 66.2887 73.1427 65.1781Z" fill="#E62B4A"/>
<path d="M39.468 40.8556L32.2784 93.17L30.291 94.3261L37.4871 39.6996L39.468 40.8556Z" fill="#E0E0E0"/>
<path d="M32.2784 93.17L74.4221 117.48L74.1364 119.636L30.291 94.3261L32.2784 93.17Z" fill="#EBEBEB"/>
<path d="M223.435 4.33625V150.005C223.379 151.055 223.075 152.077 222.549 152.988C222.023 153.898 221.29 154.672 220.409 155.246L136.725 203.514C136.426 203.702 136.079 203.801 135.725 203.8C135.594 203.798 135.464 203.782 135.335 203.754C135.246 203.734 135.159 203.703 135.076 203.663L134.92 203.573L134.738 203.456C134.679 203.409 134.622 203.359 134.569 203.306C134.334 203.081 134.147 202.812 134.017 202.514C133.805 202.031 133.696 201.509 133.699 200.981V56.0856C133.756 55.0356 134.06 54.0138 134.585 53.1032C135.111 52.1925 135.844 51.4187 136.725 50.8444L220.409 2.58919C220.702 2.38487 221.04 2.25501 221.394 2.21088C221.748 2.16674 222.108 2.20965 222.442 2.3359C222.535 2.37287 222.623 2.42319 222.701 2.48527C222.778 2.53996 222.846 2.60562 222.903 2.68011C222.937 2.71392 222.967 2.75089 222.994 2.79052C223.034 2.83681 223.067 2.88947 223.091 2.94639C223.168 3.06721 223.227 3.19844 223.266 3.33607C223.305 3.42032 223.329 3.51028 223.338 3.60235C223.342 3.61142 223.345 3.62143 223.345 3.63158C223.345 3.64173 223.342 3.65174 223.338 3.6608C223.363 3.75196 223.378 3.8456 223.383 3.94007C223.408 4.07108 223.425 4.20334 223.435 4.33625Z" fill="#455A64"/>
<path d="M222.442 2.3359C222.108 2.20965 221.748 2.16674 221.394 2.21088C221.04 2.25501 220.702 2.38487 220.409 2.58919L136.725 50.8249C135.838 51.3989 135.1 52.1749 134.57 53.0893C134.041 54.0037 133.735 55.0305 133.679 56.0856V65.9575L129.815 63.6908V53.8709C129.877 52.829 130.182 51.8161 130.707 50.9137C131.231 50.0113 131.96 49.2445 132.835 48.6752L216.545 0.406985C216.861 0.176149 217.236 0.037578 217.627 0.00662694C218.018 -0.0243241 218.41 0.0535534 218.759 0.23163C219.285 0.556362 221.799 1.99817 222.442 2.3359Z" fill="#E62B4A"/>
<path d="M223.429 4.31676C223.429 2.40733 222.071 1.63447 220.409 2.59568L136.725 50.8249C135.839 51.3997 135.101 52.1758 134.572 53.0901C134.042 54.0043 133.736 55.0307 133.679 56.0856V65.9574L223.429 14.2471V4.31676Z" fill="#E62B4A"/>
<g opacity="0.4">
<path opacity="0.4" d="M220.409 2.59568L136.725 50.8249C135.839 51.3849 135.107 52.1573 134.595 53.0721L130.757 50.8444C131.258 49.9408 131.983 49.1806 132.861 48.6362L216.545 0.406985C216.861 0.176149 217.236 0.037578 217.627 0.00662694C218.018 -0.0243241 218.41 0.0535534 218.759 0.23163C219.305 0.562856 221.818 1.99168 222.455 2.3359C222.119 2.20661 221.756 2.16267 221.399 2.208C221.042 2.25334 220.702 2.38655 220.409 2.59568Z" fill="white"/>
</g>
<path opacity="0.15" d="M129.828 63.7038V53.8709C129.869 52.7993 130.186 51.7566 130.75 50.8444L134.602 53.0591C134.033 53.969 133.715 55.0131 133.679 56.0856V65.9575L129.828 63.7038Z" fill="black"/>
<path d="M205.211 15.5785C204.27 16.124 203.503 17.7477 203.503 19.196C203.503 20.6443 204.27 21.3912 205.211 20.8456C206.153 20.3001 206.919 18.6764 206.919 17.2281C206.919 15.7798 206.153 15.0329 205.211 15.5785Z" fill="#455A64"/>
<path d="M211.362 12.0194C210.42 12.565 209.654 14.1886 209.654 15.6369C209.654 17.0852 210.42 17.8321 211.362 17.2866C212.303 16.741 213.07 15.1174 213.07 13.6691C213.07 12.2207 212.31 11.4739 211.362 12.0194Z" fill="#455A64"/>
<path d="M217.519 8.46034C216.57 9.00589 215.811 10.6296 215.811 12.0779C215.811 13.5262 216.57 14.273 217.519 13.7275C218.467 13.1819 219.227 11.5583 219.227 10.11C219.227 8.66167 218.46 7.92128 217.519 8.46034Z" fill="#455A64"/>
<path d="M134.809 203.514C134.699 203.443 134.569 203.371 134.433 203.293C134.153 203.124 133.835 202.943 133.497 202.767L132.991 202.481H132.952C132.673 202.326 132.406 202.163 132.153 202.027L131.504 201.65C131.382 201.574 131.256 201.505 131.127 201.442C130.928 201.336 130.752 201.193 130.607 201.02C130.441 200.84 130.305 200.634 130.205 200.41C129.97 199.908 129.85 199.36 129.854 198.805V63.7168L133.679 65.9574V200.994C133.693 201.52 133.8 202.039 133.998 202.527C134.127 202.825 134.315 203.094 134.55 203.319C134.595 203.38 134.652 203.431 134.718 203.469C134.745 203.49 134.776 203.505 134.809 203.514Z" fill="#37474F"/>
<path d="M141.129 74.1732C141.133 73.9749 141.187 73.7807 141.285 73.6081L143.46 69.1074C143.481 69.0564 143.514 69.0116 143.558 68.9775C143.558 68.9775 143.603 68.9385 143.616 68.9385C143.639 68.917 143.669 68.9051 143.701 68.9051C143.732 68.9051 143.762 68.917 143.785 68.9385C143.811 68.9687 143.831 69.0038 143.843 69.0417C143.855 69.0796 143.86 69.1196 143.856 69.1593V70.6661C143.861 70.8232 143.846 70.9804 143.811 71.1337C143.777 71.2783 143.724 71.4179 143.655 71.5493L142.512 73.9264L143.655 74.9785C143.727 75.0411 143.781 75.1218 143.811 75.2123C143.848 75.3475 143.864 75.4879 143.856 75.628V77.1412C143.854 77.2469 143.83 77.3509 143.785 77.4465C143.75 77.5305 143.691 77.6027 143.616 77.6543H143.558C143.542 77.6618 143.526 77.6656 143.509 77.6656C143.492 77.6656 143.475 77.6618 143.46 77.6543L141.285 75.6605C141.229 75.6145 141.185 75.5555 141.158 75.4886C141.131 75.4217 141.121 75.3491 141.129 75.2773V74.1732Z" fill="#E62B4A"/>
<path d="M149.085 62.8855C149.125 62.7326 149.181 62.5845 149.253 62.4438C149.32 62.2979 149.431 62.1772 149.572 62.0996L150.39 61.6255C150.414 61.6054 150.443 61.5943 150.474 61.5943C150.505 61.5943 150.535 61.6054 150.559 61.6255C150.61 61.6872 150.636 61.7663 150.63 61.8463C150.636 61.9025 150.636 61.959 150.63 62.0152L146.896 77.9076C146.864 78.056 146.813 78.1999 146.747 78.3362C146.674 78.4872 146.559 78.6137 146.415 78.6999L145.629 79.1546C145.606 79.1747 145.576 79.1857 145.545 79.1857C145.514 79.1857 145.484 79.1747 145.461 79.1546C145.434 79.1248 145.414 79.0898 145.401 79.0517C145.389 79.0137 145.385 78.9735 145.389 78.9337C145.384 78.8776 145.384 78.8211 145.389 78.7649L149.085 62.8855Z" fill="#E62B4A"/>
<path d="M154.858 67.3733C154.854 67.5716 154.8 67.7657 154.702 67.9383L152.514 72.4391C152.491 72.4887 152.458 72.533 152.416 72.569C152.384 72.569 152.371 72.608 152.358 72.608C152.334 72.6281 152.304 72.6391 152.273 72.6391C152.243 72.6391 152.213 72.6281 152.189 72.608C152.138 72.5437 152.112 72.4627 152.118 72.3806V70.8739C152.113 70.7167 152.128 70.5595 152.163 70.4063C152.197 70.2617 152.25 70.122 152.319 69.9906L153.462 67.6136L152.319 66.5614C152.247 66.4989 152.193 66.4181 152.163 66.3276C152.126 66.1924 152.11 66.0521 152.118 65.912V64.3987C152.12 64.2931 152.144 64.189 152.189 64.0935C152.224 64.0094 152.283 63.9373 152.358 63.8856H152.416C152.448 63.8736 152.482 63.8736 152.514 63.8856L154.689 65.8795C154.745 65.9254 154.789 65.9845 154.816 66.0514C154.843 66.1183 154.853 66.1909 154.845 66.2627L154.858 67.3733Z" fill="#E62B4A"/>
<path d="M160.905 66.3276C160.934 66.3033 160.971 66.29 161.009 66.29C161.047 66.29 161.084 66.3033 161.113 66.3276C161.145 66.3648 161.17 66.408 161.186 66.4548C161.201 66.5017 161.207 66.5512 161.204 66.6004V68.263C161.202 68.3939 161.171 68.5226 161.113 68.6397C161.07 68.743 160.998 68.8313 160.905 68.893L159.879 69.4905C159.849 69.5166 159.811 69.5309 159.772 69.5309C159.732 69.5309 159.694 69.5166 159.664 69.4905C159.633 69.4545 159.609 69.4122 159.594 69.3663C159.579 69.3205 159.575 69.2721 159.58 69.2243V67.5551C159.58 67.427 159.609 67.3004 159.664 67.1849C159.707 67.0781 159.782 66.9873 159.879 66.9252L160.905 66.3276Z" fill="#E62B4A"/>
<path d="M164.334 64.3468C164.363 64.3212 164.4 64.3071 164.438 64.3071C164.476 64.3071 164.513 64.3212 164.542 64.3468C164.576 64.383 164.601 64.4261 164.617 64.4732C164.633 64.5203 164.638 64.5702 164.633 64.6196V66.2822C164.634 66.4134 164.603 66.5429 164.542 66.6589C164.501 66.7633 164.429 66.852 164.334 66.9122L163.308 67.5097C163.279 67.5352 163.242 67.5494 163.204 67.5494C163.166 67.5494 163.129 67.5352 163.1 67.5097C163.066 67.4732 163.041 67.4301 163.025 67.383C163.01 67.336 163.004 67.2862 163.009 67.2369V65.5678C163.011 65.4392 163.043 65.3127 163.1 65.1976C163.141 65.0915 163.213 65.0006 163.308 64.9378L164.334 64.3468Z" fill="#E62B4A"/>
<path d="M167.763 62.3659C167.793 62.3399 167.831 62.3255 167.87 62.3255C167.91 62.3255 167.948 62.3399 167.978 62.3659C168.009 62.4035 168.033 62.447 168.047 62.4938C168.062 62.5407 168.067 62.5899 168.062 62.6387V64.3013C168.063 64.4316 168.034 64.5604 167.978 64.678C167.935 64.7831 167.86 64.8718 167.763 64.9313L166.737 65.5288C166.708 65.5544 166.671 65.5685 166.633 65.5685C166.595 65.5685 166.558 65.5544 166.529 65.5288C166.497 65.4918 166.473 65.4484 166.458 65.4014C166.443 65.3544 166.439 65.3049 166.445 65.256V63.5934C166.445 63.4652 166.474 63.3387 166.529 63.2232C166.57 63.1171 166.642 63.0263 166.737 62.9634L167.763 62.3659Z" fill="#E62B4A"/>
<path d="M142.044 86.3117L192.326 57.2871C192.917 56.9429 193.404 57.1832 193.404 57.8261C193.376 58.1874 193.264 58.5371 193.077 58.8473C192.89 59.1574 192.633 59.4194 192.326 59.6122L142.044 88.6432C141.453 88.9875 140.973 88.7407 140.973 88.0977C140.999 87.7369 141.11 87.3874 141.296 87.0772C141.482 86.767 141.739 86.5048 142.044 86.3117Z" fill="#E62B4A"/>
<path d="M158.177 104.945L208.459 75.9137C209.05 75.5695 209.537 75.8163 209.537 76.4593C209.51 76.8198 209.398 77.1688 209.211 77.478C209.023 77.7872 208.766 78.0478 208.459 78.2388L158.177 107.27C157.586 107.614 157.106 107.367 157.106 106.724C157.131 106.364 157.242 106.015 157.428 105.706C157.614 105.397 157.871 105.136 158.177 104.945Z" fill="white"/>
<path d="M158.177 123.571L182.246 109.686C182.837 109.342 183.318 109.588 183.318 110.231C183.291 110.592 183.181 110.942 182.995 111.252C182.808 111.562 182.552 111.824 182.246 112.017L158.177 125.897C157.586 126.241 157.106 126 157.106 125.357C157.132 124.997 157.243 124.647 157.429 124.337C157.615 124.027 157.871 123.765 158.177 123.571Z" fill="#E0E0E0"/>
<path d="M196.496 54.8776L216.525 43.2717C217.116 42.9275 217.597 43.1743 217.597 43.8172C217.571 44.1773 217.46 44.5261 217.274 44.8353C217.088 45.1446 216.831 45.4054 216.525 45.5968L196.496 57.2092C195.898 57.5534 195.417 57.3066 195.417 56.6636C195.444 56.3021 195.556 55.952 195.743 55.6417C195.93 55.3314 196.188 55.0696 196.496 54.8776Z" fill="#E62B4A"/>
<path d="M142.044 188.758L192.326 159.727C192.917 159.389 193.404 159.63 193.404 160.273C193.376 160.634 193.264 160.984 193.077 161.294C192.89 161.604 192.633 161.866 192.326 162.059L142.044 191.09C141.453 191.428 140.973 191.187 140.973 190.544C140.999 190.183 141.11 189.834 141.296 189.524C141.482 189.214 141.739 188.951 142.044 188.758Z" fill="#E62B4A"/>
<path d="M196.496 157.324L216.525 145.712C217.116 145.367 217.597 145.608 217.597 146.251C217.57 146.612 217.459 146.961 217.273 147.271C217.087 147.581 216.831 147.844 216.525 148.037L196.496 159.643C195.898 159.987 195.417 159.747 195.417 159.104C195.445 158.743 195.557 158.394 195.744 158.085C195.932 157.776 196.189 157.516 196.496 157.324Z" fill="#E62B4A"/>
<path d="M196.496 129.43L216.525 117.824C217.116 117.479 217.597 117.726 217.597 118.369C217.57 118.73 217.459 119.08 217.273 119.39C217.087 119.7 216.831 119.962 216.525 120.155L196.496 131.761C195.898 132.105 195.417 131.859 195.417 131.216C195.444 130.854 195.556 130.504 195.743 130.194C195.93 129.883 196.188 129.622 196.496 129.43Z" fill="#E62B4A"/>
<path d="M196.496 138.743L216.525 127.137C217.116 126.793 217.597 127.033 217.597 127.676C217.57 128.037 217.459 128.386 217.273 128.697C217.087 129.007 216.831 129.269 216.525 129.462L196.496 141.075C195.898 141.412 195.417 141.172 195.417 140.529C195.444 140.167 195.556 139.817 195.743 139.507C195.93 139.197 196.188 138.935 196.496 138.743Z" fill="#E62B4A"/>
<path d="M179.415 139.263L190.663 132.768C191.261 132.424 191.741 132.67 191.741 133.313C191.715 133.675 191.603 134.025 191.416 134.335C191.229 134.646 190.971 134.907 190.663 135.099L179.415 141.594C178.817 141.938 178.336 141.692 178.336 141.049C178.363 140.687 178.475 140.337 178.662 140.027C178.849 139.716 179.107 139.455 179.415 139.263Z" fill="#E62B4A"/>
<path d="M142.044 95.651L171.348 78.7065C171.939 78.3622 172.42 78.609 172.42 79.2455C172.394 79.6064 172.283 79.9562 172.097 80.2664C171.911 80.5767 171.655 80.8388 171.348 81.0315L142.044 97.9761C141.453 98.3203 140.973 98.08 140.973 97.437C140.999 97.0762 141.11 96.7267 141.296 96.4165C141.482 96.1063 141.739 95.8441 142.044 95.651Z" fill="#E62B4A"/>
<path opacity="0.6" d="M142.044 95.651L171.348 78.7065C171.939 78.3622 172.42 78.609 172.42 79.2455C172.394 79.6064 172.283 79.9562 172.097 80.2664C171.911 80.5767 171.655 80.8388 171.348 81.0315L142.044 97.9761C141.453 98.3203 140.973 98.08 140.973 97.437C140.999 97.0762 141.11 96.7267 141.296 96.4165C141.482 96.1063 141.739 95.8441 142.044 95.651Z" fill="white"/>
<path d="M142.044 104.945L151.994 99.1971C152.592 98.8528 153.072 99.0931 153.072 99.7361C153.05 100.102 152.94 100.457 152.753 100.773C152.565 101.088 152.305 101.354 151.994 101.548L142.044 107.302C141.453 107.64 140.973 107.4 140.973 106.757C140.995 106.392 141.104 106.037 141.29 105.722C141.477 105.407 141.735 105.14 142.044 104.945Z" fill="#E62B4A"/>
<path opacity="0.6" d="M142.044 104.945L151.994 99.1971C152.592 98.8528 153.072 99.0931 153.072 99.7361C153.05 100.102 152.94 100.457 152.753 100.773C152.565 101.088 152.305 101.354 151.994 101.548L142.044 107.302C141.453 107.64 140.973 107.4 140.973 106.757C140.995 106.392 141.104 106.037 141.29 105.722C141.477 105.407 141.735 105.14 142.044 104.945Z" fill="white"/>
<path d="M142.044 114.258L151.994 108.51C152.592 108.166 153.072 108.406 153.072 109.049C153.046 109.411 152.934 109.761 152.747 110.071C152.56 110.382 152.302 110.643 151.994 110.835L142.044 116.59C141.453 116.934 140.973 116.687 140.973 116.044C140.999 115.683 141.11 115.334 141.296 115.024C141.482 114.713 141.739 114.451 142.044 114.258Z" fill="#E62B4A"/>
<path opacity="0.6" d="M142.044 114.258L151.994 108.51C152.592 108.166 153.072 108.406 153.072 109.049C153.046 109.411 152.934 109.761 152.747 110.071C152.56 110.382 152.302 110.643 151.994 110.835L142.044 116.59C141.453 116.934 140.973 116.687 140.973 116.044C140.999 115.683 141.11 115.334 141.296 115.024C141.482 114.713 141.739 114.451 142.044 114.258Z" fill="white"/>
<path d="M142.044 123.571L151.994 117.824C152.592 117.479 153.072 117.72 153.072 118.363C153.046 118.724 152.934 119.074 152.747 119.385C152.56 119.695 152.302 119.957 151.994 120.149L142.044 125.903C141.453 126.247 140.973 126 140.973 125.357C140.999 124.997 141.11 124.647 141.296 124.337C141.482 124.027 141.739 123.765 142.044 123.571Z" fill="#E62B4A"/>
<path opacity="0.6" d="M142.044 123.571L151.994 117.817C152.592 117.473 153.072 117.72 153.072 118.363C153.046 118.724 152.934 119.074 152.747 119.385C152.56 119.695 152.302 119.957 151.994 120.149L142.044 125.897C141.453 126.241 140.973 126 140.973 125.358C140.999 124.997 141.11 124.647 141.296 124.337C141.482 124.027 141.739 123.765 142.044 123.571Z" fill="white"/>
<path d="M158.177 114.258L187.507 97.3136C188.098 96.9694 188.579 97.2097 188.579 97.8527C188.552 98.2134 188.441 98.563 188.255 98.8732C188.069 99.1834 187.813 99.4456 187.507 99.6387L158.177 116.583C157.586 116.927 157.106 116.687 157.106 116.044C157.131 115.683 157.242 115.334 157.428 115.023C157.614 114.713 157.871 114.451 158.177 114.258Z" fill="#E62B4A"/>
<path d="M191.67 94.9041L204.425 87.5651C205.016 87.2209 205.497 87.4677 205.497 88.1107C205.471 88.4715 205.36 88.821 205.174 89.1312C204.988 89.4414 204.731 89.7036 204.425 89.8967L191.67 97.2357C191.079 97.5799 190.598 97.3331 190.598 96.6901C190.625 96.3293 190.736 95.9798 190.922 95.6696C191.108 95.3594 191.364 95.0972 191.67 94.9041Z" fill="#E62B4A"/>
<path d="M142.044 132.885L151.994 127.137C152.592 126.793 153.072 127.033 153.072 127.676C153.048 128.04 152.937 128.393 152.75 128.705C152.562 129.018 152.303 129.282 151.994 129.475L142.044 135.229C141.453 135.574 140.973 135.327 140.973 134.684C140.997 134.321 141.107 133.969 141.293 133.656C141.479 133.343 141.737 133.079 142.044 132.885Z" fill="#E62B4A"/>
<path opacity="0.6" d="M142.044 132.885L151.994 127.137C152.592 126.793 153.072 127.033 153.072 127.676C153.048 128.04 152.937 128.393 152.75 128.705C152.562 129.018 152.303 129.282 151.994 129.475L142.044 135.229C141.453 135.574 140.973 135.327 140.973 134.684C140.997 134.321 141.107 133.969 141.293 133.656C141.479 133.343 141.737 133.079 142.044 132.885Z" fill="white"/>
<path d="M175.537 76.2969L188.293 68.958C188.884 68.6203 189.371 68.8606 189.371 69.5035C189.343 69.8648 189.231 70.2145 189.044 70.5246C188.857 70.8348 188.6 71.0968 188.293 71.2896L175.537 78.6285C174.946 78.9727 174.466 78.7259 174.466 78.083C174.492 77.7222 174.603 77.3726 174.789 77.0624C174.975 76.7522 175.231 76.49 175.537 76.2969Z" fill="#E62B4A"/>
<path opacity="0.6" d="M175.537 76.2969L188.293 68.958C188.884 68.6203 189.371 68.8606 189.371 69.5035C189.343 69.8648 189.231 70.2145 189.044 70.5246C188.857 70.8348 188.6 71.0968 188.293 71.2896L175.537 78.6285C174.946 78.9727 174.466 78.7259 174.466 78.083C174.492 77.7222 174.603 77.3726 174.789 77.0624C174.975 76.7522 175.231 76.49 175.537 76.2969Z" fill="white"/>
<path d="M170.277 125.884L199.606 108.939C200.197 108.595 200.678 108.842 200.678 109.485C200.652 109.845 200.541 110.195 200.355 110.505C200.169 110.815 199.912 111.077 199.606 111.271L170.277 128.215C169.686 128.553 169.205 128.313 169.205 127.67C169.231 127.309 169.342 126.959 169.528 126.649C169.714 126.339 169.971 126.077 170.277 125.884Z" fill="#E0E0E0"/>
<path d="M187.195 125.468L216.525 108.523C217.116 108.179 217.603 108.426 217.603 109.069C217.576 109.429 217.464 109.778 217.277 110.088C217.09 110.397 216.832 110.657 216.525 110.848L187.195 127.793C186.604 128.137 186.124 127.897 186.124 127.254C186.15 126.893 186.261 126.544 186.447 126.233C186.633 125.923 186.889 125.661 187.195 125.468Z" fill="white"/>
<path d="M203.77 106.536L216.525 99.1971C217.116 98.8528 217.597 99.0931 217.597 99.7361C217.57 100.097 217.459 100.446 217.273 100.757C217.087 101.067 216.831 101.329 216.525 101.522L203.77 108.861C203.179 109.205 202.698 108.965 202.698 108.322C202.724 107.961 202.834 107.611 203.021 107.301C203.207 106.991 203.463 106.729 203.77 106.536Z" fill="#E0E0E0"/>
<path d="M203.77 143.426L216.525 136.087C217.116 135.742 217.597 135.983 217.597 136.626C217.57 136.986 217.459 137.336 217.273 137.646C217.087 137.956 216.831 138.219 216.525 138.412L203.77 145.751C203.179 146.095 202.698 145.848 202.698 145.205C202.724 144.845 202.834 144.496 203.021 144.187C203.207 143.878 203.463 143.617 203.77 143.426Z" fill="#E0E0E0"/>
<path d="M158.177 95.6315L187.507 78.687C188.098 78.3427 188.579 78.5895 188.579 79.2325C188.552 79.5933 188.441 79.9428 188.255 80.253C188.069 80.5632 187.813 80.8254 187.507 81.0185L158.177 97.9631C157.586 98.3008 157.106 98.0605 157.106 97.4175C157.132 97.0567 157.243 96.7072 157.429 96.397C157.615 96.0868 157.871 95.8246 158.177 95.6315Z" fill="#E62B4A"/>
<path opacity="0.6" d="M158.177 95.6315L187.507 78.687C188.098 78.3427 188.579 78.5895 188.579 79.2325C188.552 79.5933 188.441 79.9428 188.255 80.253C188.069 80.5632 187.813 80.8254 187.507 81.0185L158.177 97.9631C157.586 98.3008 157.106 98.0605 157.106 97.4175C157.132 97.0567 157.243 96.7072 157.429 96.397C157.615 96.0868 157.871 95.8246 158.177 95.6315Z" fill="white"/>
<path d="M191.67 76.2839L204.425 68.945C205.016 68.6008 205.497 68.8411 205.497 69.484C205.471 69.8448 205.36 70.1944 205.174 70.5046C204.988 70.8148 204.731 71.077 204.425 71.2701L191.67 78.609C191.079 78.9532 190.598 78.7129 190.598 78.07C190.623 77.7088 190.733 77.3587 190.92 77.0482C191.106 76.7378 191.363 76.4759 191.67 76.2839Z" fill="#E62B4A"/>
<path opacity="0.6" d="M191.67 76.2839L204.425 68.945C205.016 68.6008 205.497 68.8411 205.497 69.484C205.471 69.8448 205.36 70.1944 205.174 70.5046C204.988 70.8148 204.731 71.077 204.425 71.2701L191.67 78.609C191.079 78.9532 190.598 78.7129 190.598 78.07C190.623 77.7088 190.733 77.3587 190.92 77.0482C191.106 76.7378 191.363 76.4759 191.67 76.2839Z" fill="white"/>
<path opacity="0.6" d="M158.177 114.258L187.507 97.3136C188.098 96.9694 188.579 97.2097 188.579 97.8527C188.552 98.2134 188.441 98.563 188.255 98.8732C188.069 99.1834 187.813 99.4456 187.507 99.6387L158.177 116.583C157.586 116.927 157.106 116.687 157.106 116.044C157.131 115.683 157.242 115.334 157.428 115.023C157.614 114.713 157.871 114.451 158.177 114.258Z" fill="white"/>
<path opacity="0.6" d="M191.67 94.9041L204.425 87.5651C205.016 87.2209 205.497 87.4677 205.497 88.1107C205.471 88.4715 205.36 88.821 205.174 89.1312C204.988 89.4414 204.731 89.7036 204.425 89.8967L191.67 97.2357C191.079 97.5799 190.598 97.3331 190.598 96.6901C190.625 96.3293 190.736 95.9798 190.922 95.6696C191.108 95.3594 191.364 95.0972 191.67 94.9041Z" fill="white"/>
<path d="M258.305 16.4682L251.31 20.4754L244.277 19.826C244.195 19.8187 244.112 19.8321 244.036 19.8649C244.601 19.5337 250.732 16.0266 250.986 15.8902C251.073 15.8374 251.177 15.8168 251.278 15.8317L258.305 16.4682Z" fill="#E62B4A"/>
<path opacity="0.5" d="M258.305 16.4682L251.31 20.4754L244.277 19.826C244.195 19.8187 244.112 19.8321 244.036 19.8649C244.601 19.5337 250.732 16.0266 250.986 15.8902C251.073 15.8374 251.177 15.8168 251.278 15.8317L258.305 16.4682Z" fill="white"/>
<path d="M280.043 17.8711L254.753 3.26462L249.726 6.18721L251.577 43.7133L262.371 56.4947L273.165 56.1765L278.192 53.2539L280.043 17.8711Z" fill="#E62B4A"/>
<path opacity="0.5" d="M280.043 17.8711L275.022 20.7937L249.726 6.18721L254.753 3.26462L280.043 17.8711Z" fill="white"/>
<path opacity="0.15" d="M280.043 17.8711L275.022 20.7937L273.165 56.1765L278.192 53.2539L280.043 17.8711Z" fill="black"/>
<path d="M249.726 6.18723L250.427 20.3975L244.283 19.8585C244.18 19.8503 244.076 19.8733 243.986 19.9244C243.896 19.9756 243.823 20.0525 243.777 20.1455C243.731 20.2384 243.713 20.343 243.727 20.4457C243.741 20.5485 243.785 20.6448 243.855 20.7222L250.817 28.2625L251.577 43.7458L262.371 56.5272L273.165 56.209L275.022 20.8262L249.726 6.18723Z" fill="#E62B4A"/>
<path opacity="0.5" d="M262.371 17.1502L272.424 22.9499L270.944 52.0589L262.371 52.6954V17.1502Z" fill="white"/>
<path d="M270.034 24.4307L268.976 48.2725L262.371 48.6492L255.772 40.6478L255.434 33.9129L257.825 35.2897L258.019 39.3099L262.371 44.7589L266.722 44.3303L267.463 26.6064L254.902 19.3519L254.714 15.585L270.034 24.4307Z" fill="white"/>
<path d="M258.305 76.3879L251.31 80.3951L244.277 79.7456C244.195 79.7395 244.113 79.7506 244.036 79.7781C244.601 79.4468 250.732 75.9397 250.986 75.8033C251.075 75.7538 251.177 75.7334 251.278 75.7449L258.305 76.3879Z" fill="#E62B4A"/>
<path d="M280.043 77.7907L254.753 63.1842L249.726 66.1068L251.577 103.633L262.371 116.414L273.165 116.096L278.192 113.174L280.043 77.7907Z" fill="#E62B4A"/>
<path opacity="0.35" d="M280.043 77.7907L275.022 80.7068L273.165 116.096L278.192 113.174L280.043 77.7907Z" fill="black"/>
<path d="M249.726 66.1068L250.427 80.3106L244.283 79.778C244.18 79.7699 244.076 79.7929 243.986 79.844C243.896 79.8952 243.823 79.9721 243.777 80.065C243.731 80.158 243.713 80.2625 243.727 80.3653C243.741 80.4681 243.785 80.5644 243.855 80.6418L250.817 88.1821L251.577 103.633L262.371 116.414L273.165 116.096L275.022 80.7068L249.726 66.1068Z" fill="#E62B4A"/>
<path opacity="0.25" d="M249.726 66.1068L250.427 80.3106L244.283 79.778C244.18 79.7699 244.076 79.7929 243.986 79.844C243.896 79.8952 243.823 79.9721 243.777 80.065C243.731 80.158 243.713 80.2625 243.727 80.3653C243.741 80.4681 243.785 80.5644 243.855 80.6418L250.817 88.1821L251.577 103.633L262.371 116.414L273.165 116.096L275.022 80.7068L249.726 66.1068Z" fill="black"/>
<path opacity="0.7" d="M262.371 77.0633L272.424 82.8695L270.944 111.972L262.371 112.615V77.0633Z" fill="#E62B4A"/>
<path d="M254.714 75.5046L254.869 79.252L267.463 86.5195L267.157 93.9104L255.201 87.0066L255.357 90.754L267.008 97.4825L266.722 104.25L262.371 104.679L258.019 99.223L257.825 95.2093L255.434 93.8325L255.772 100.567L262.371 108.569L268.976 108.192L270.034 84.3438L254.714 75.5046Z" fill="white"/>
<path d="M280.043 137.697L254.753 123.097L249.726 126.013L251.577 163.54L262.371 176.321L273.165 176.003L278.192 173.08L280.043 137.697Z" fill="#E62B4A"/>
<path opacity="0.25" d="M280.043 137.697L275.022 140.62L249.726 126.013L254.753 123.097L280.043 137.697Z" fill="black"/>
<path opacity="0.55" d="M280.043 137.697L275.022 140.62L273.165 176.003L278.192 173.08L280.043 137.697Z" fill="black"/>
<path d="M258.305 136.294L251.31 140.302L244.277 139.685C244.195 139.677 244.112 139.691 244.036 139.724C244.601 139.392 250.732 135.879 250.986 135.742C251.076 135.696 251.177 135.676 251.278 135.684L258.305 136.294Z" fill="#E62B4A"/>
<path opacity="0.25" d="M258.305 136.294L251.31 140.302L244.277 139.685C244.195 139.677 244.112 139.691 244.036 139.724C244.601 139.392 250.732 135.879 250.986 135.742C251.076 135.696 251.177 135.676 251.278 135.684L258.305 136.294Z" fill="black"/>
<path d="M249.726 126.013L250.427 140.224L244.283 139.685C244.18 139.677 244.076 139.7 243.986 139.751C243.896 139.802 243.823 139.879 243.777 139.972C243.731 140.065 243.713 140.169 243.727 140.272C243.741 140.375 243.785 140.471 243.855 140.548L250.817 148.089L251.577 163.54L262.371 176.321L273.165 176.003L275.022 140.62L249.726 126.013Z" fill="#E62B4A"/>
<path opacity="0.4" d="M249.726 126.013L250.427 140.224L244.283 139.685C244.18 139.677 244.076 139.7 243.986 139.751C243.896 139.802 243.823 139.879 243.777 139.972C243.731 140.065 243.713 140.169 243.727 140.272C243.741 140.375 243.785 140.471 243.855 140.548L250.817 148.089L251.577 163.54L262.371 176.321L273.165 176.003L275.022 140.62L249.726 126.013Z" fill="black"/>
<path opacity="0.5" d="M262.371 136.976L272.424 142.776L270.944 171.885L262.371 172.522V136.976Z" fill="#E62B4A"/>
<path d="M270.034 144.257L254.714 135.411L255.357 150.667L267.008 157.389L266.722 164.163L262.371 164.585L258.019 159.136L257.825 155.116L255.434 153.739L255.772 160.481L262.371 168.475L268.976 168.099L269.541 155.194L257.591 148.297L257.279 140.555L269.846 147.809L270.034 144.257Z" fill="white"/>
<path d="M148.169 213.373C146.35 218.802 144.792 225.817 142.324 236.383C140.018 246.281 140.005 253.27 143.207 255.673C146.409 258.076 155.586 256.608 161.392 244.242C163.21 240.345 170.049 228.428 170.049 228.428C170.049 228.428 175.115 226.603 176.862 225.232C176.862 225.232 193.748 225.726 201.958 224.044C210.167 222.362 218.896 212.353 215.531 211.353C209.491 209.574 193.398 208.898 179.765 208.021L148.169 213.373Z" fill="#37474F"/>
<path d="M193.917 221.926C190.222 222.784 184.747 221.641 181.662 220.744C181.846 219.666 181.811 218.561 181.558 217.497C181.386 218.945 180.92 220.341 180.187 221.602C179.681 221.887 179.252 222.128 178.941 222.29C176.888 223.336 171.251 226.219 170.205 225.31C168.632 223.277 166.396 221.859 163.886 221.303C165.652 222.491 170.77 226.161 168.952 230.395L170.062 228.447C170.062 228.447 175.128 226.622 176.875 225.252C176.875 225.252 186.325 225.524 194.515 224.966L204.257 218.231C204.257 218.231 199.58 217.939 193.917 221.926Z" fill="#263238"/>
<path d="M184.448 233.448C183.216 234.656 181.71 235.548 180.058 236.046C179.514 236.166 178.951 236.166 178.408 236.046C176.511 235.65 173.472 235.656 172.407 239.442C171.205 243.735 166.406 245.775 165.126 248.717C164.477 250.185 164.152 254.439 164.776 257.056C165.295 259.199 169.445 257.608 170.985 254.991C172.524 252.373 175.823 248.925 177.999 246.937C181.538 244.943 185.468 242.021 187.143 240.845L184.448 233.448Z" fill="#F28F8F"/>
<path d="M209.413 209.892C220.305 210.619 220.675 216.386 217.954 220.777C215.025 225.485 204.315 231.818 198.47 235.169C193.138 238.241 184.039 243.683 184.039 243.683C184.039 243.683 179.434 240.085 180.032 236.039C186.059 231.837 194.177 219.874 204.224 218.211L209.413 209.892Z" fill="#263238"/>
<path d="M166.419 258.374C165.792 258.468 165.153 258.32 164.633 257.959C164.146 257.614 163.068 254.581 163.983 250.905C164.653 248.177 166.044 245.678 168.01 243.67C169.198 242.41 169.627 240.962 170.056 239.124C170.484 237.286 171.822 235.033 172.751 234.779C173.68 234.526 175.089 235.247 175.089 235.247L166.419 258.374Z" fill="#263238"/>
<path d="M180.778 245.385C180.551 246.554 179.59 246.853 178.557 247.262C177.148 247.821 175.81 249.275 174.537 250.899C173.673 252.003 172.959 253.107 172.173 254.263C171.387 255.419 170.725 257.088 169.88 257.972C168.64 259.271 166.133 259.024 165.445 257.186C164.847 255.601 164.594 251.665 166.399 247.898C167.387 245.84 170.114 243.846 170.829 241.047C171.303 239.176 171.959 236.949 173.336 235.526C174.154 234.682 174.901 234.877 175.933 235.175C177.291 235.55 178.67 235.839 180.064 236.039C180.034 237.194 179.685 238.317 179.057 239.287C178.809 239.595 178.632 239.954 178.538 240.339C178.513 240.605 178.537 240.874 178.609 241.131C178.687 241.495 178.817 241.917 179.174 242.021C179.323 242.041 179.472 242.052 179.622 242.053C180.181 242.125 180.454 242.768 180.597 243.313C180.779 243.899 180.856 244.513 180.824 245.125C180.814 245.213 180.799 245.299 180.778 245.385Z" fill="#E62B4A"/>
<path opacity="0.4" d="M180.778 245.385C180.551 246.554 179.59 246.853 178.557 247.262C177.148 247.821 175.81 249.275 174.537 250.899C173.673 252.003 172.959 253.107 172.173 254.263C171.387 255.419 170.725 257.088 169.88 257.972C168.64 259.271 166.133 259.024 165.445 257.186C164.847 255.601 164.594 251.665 166.399 247.898C167.387 245.84 170.114 243.846 170.829 241.047C171.303 239.176 171.959 236.949 173.336 235.526C174.154 234.682 174.901 234.877 175.933 235.175C177.291 235.55 178.67 235.839 180.064 236.039C180.034 237.194 179.685 238.317 179.057 239.287C178.809 239.595 178.632 239.954 178.538 240.339C178.513 240.605 178.537 240.874 178.609 241.131C178.687 241.495 178.817 241.917 179.174 242.021C179.323 242.041 179.472 242.052 179.622 242.053C180.181 242.125 180.454 242.768 180.597 243.313C180.779 243.899 180.856 244.513 180.824 245.125C180.814 245.213 180.799 245.299 180.778 245.385Z" fill="black"/>
<path d="M175.81 249.386C176.081 249.3 176.326 249.147 176.522 248.942C176.718 248.736 176.86 248.485 176.934 248.21C177.226 247.418 176.875 245.859 176.284 244.833C176.236 244.729 176.162 244.64 176.068 244.574C175.974 244.508 175.865 244.468 175.751 244.458C175.637 244.448 175.522 244.469 175.418 244.518C175.315 244.566 175.226 244.641 175.161 244.736C175.073 244.846 175.02 244.98 175.011 245.12C175.002 245.261 175.036 245.401 175.109 245.521C175.839 246.668 176.091 248.056 175.81 249.386Z" fill="#F5F5F5"/>
<path d="M173.946 251.678C174.229 251.544 174.475 251.343 174.664 251.093C174.853 250.844 174.979 250.552 175.031 250.243C175.195 248.971 174.952 247.679 174.336 246.554C174.286 246.457 174.212 246.374 174.121 246.314C174.03 246.253 173.926 246.216 173.817 246.206C173.708 246.196 173.599 246.214 173.499 246.258C173.399 246.302 173.311 246.37 173.245 246.457C173.16 246.562 173.109 246.691 173.101 246.826C173.093 246.961 173.127 247.095 173.199 247.21C173.653 247.85 173.956 248.585 174.085 249.359C174.215 250.132 174.167 250.926 173.946 251.678Z" fill="#F5F5F5"/>
<path d="M172.173 254.263C172.441 254.1 172.67 253.88 172.846 253.62C173.022 253.361 173.14 253.066 173.193 252.756C173.331 251.524 173.074 250.28 172.459 249.204C172.409 249.107 172.335 249.024 172.244 248.963C172.153 248.903 172.049 248.866 171.94 248.856C171.831 248.846 171.722 248.864 171.622 248.908C171.522 248.952 171.434 249.02 171.368 249.106C171.281 249.212 171.23 249.343 171.222 249.479C171.214 249.615 171.249 249.751 171.322 249.866C171.799 250.481 172.125 251.199 172.273 251.963C172.42 252.727 172.386 253.515 172.173 254.263Z" fill="#F5F5F5"/>
<path d="M180.103 235.059C182.051 234.572 184.87 233.883 186.039 232.337C187.208 230.792 189.644 229.298 192.93 231.461C195.008 232.831 197.476 233.279 199.944 233.441C201.042 233.415 202.14 233.467 203.23 233.597C204.528 233.952 205.757 234.521 206.867 235.279C207.57 235.674 208.187 236.207 208.679 236.845C209.081 237.442 209.3 238.143 209.31 238.862C209.32 239.582 209.122 240.289 208.738 240.897C208.604 241.116 208.43 241.308 208.225 241.462C207.969 241.643 207.676 241.765 207.368 241.82C206.231 242.073 205.283 241.716 204.211 241.417C203.321 241.17 202.412 240.982 201.509 240.819C199.455 240.434 197.376 240.191 195.287 240.092C194.398 240.059 192.547 239.917 191.657 239.982C187.942 240.235 182.688 242.326 182.688 242.326L180.103 235.059Z" fill="#FFA8A7"/>
<path d="M141.473 252.873C142.083 256.627 146.298 258.439 155.332 256.634C164.367 254.828 185.857 241.287 185.857 241.287C185.857 241.287 185.02 236.091 180.077 234.701C180.077 234.701 175.583 235.52 168.244 237.117C164.935 237.845 161.668 238.749 158.456 239.826C153.494 246.483 148.338 243.794 146.48 246.132C143.421 250.022 141.473 252.873 141.473 252.873Z" fill="#37474F"/>
<path d="M209.667 241.105C210.201 240.762 210.584 240.228 210.738 239.611C210.875 239.033 209.693 236.046 206.588 233.864C204.286 232.255 201.595 231.293 198.795 231.077C197.074 230.915 195.794 230.11 194.248 229.019C192.703 227.927 190.228 227.109 189.358 227.531C188.488 227.953 187.91 229.421 187.91 229.421L209.667 241.105Z" fill="#263238"/>
<path d="M190.319 240.793C191.261 241.521 192.183 241.112 193.229 240.741C194.658 240.235 196.625 240.443 198.652 240.826C200.029 241.086 201.295 241.475 202.646 241.8C203.997 242.125 205.595 242.969 206.815 243.099C208.595 243.248 210.323 241.417 209.634 239.585C209.037 238.001 206.634 234.87 202.789 233.227C200.698 232.331 197.333 232.623 194.95 230.993C193.359 229.902 191.397 228.648 189.423 228.492C188.254 228.395 187.825 229.045 187.241 229.934C186.468 231.112 185.622 232.24 184.708 233.311C185.495 234.165 186.501 234.785 187.617 235.104C188.005 235.175 188.375 235.325 188.702 235.546C188.894 235.734 189.052 235.953 189.17 236.195C189.351 236.513 189.527 236.923 189.325 237.234C189.228 237.347 189.124 237.453 189.014 237.553C188.643 237.981 188.864 238.637 189.111 239.144C189.363 239.704 189.71 240.216 190.137 240.657C190.195 240.706 190.256 240.751 190.319 240.793Z" fill="#E62B4A"/>
<path opacity="0.4" d="M190.319 240.793C191.261 241.521 192.183 241.112 193.229 240.741C194.658 240.235 196.625 240.443 198.652 240.826C200.029 241.086 201.295 241.475 202.646 241.8C203.997 242.125 205.595 242.969 206.815 243.099C208.595 243.248 210.323 241.417 209.634 239.585C209.037 238.001 206.634 234.87 202.789 233.227C200.698 232.331 197.333 232.623 194.95 230.993C193.359 229.902 191.397 228.648 189.423 228.492C188.254 228.395 187.825 229.045 187.241 229.934C186.468 231.112 185.622 232.24 184.708 233.311C185.495 234.165 186.501 234.785 187.617 235.104C188.005 235.175 188.375 235.325 188.702 235.546C188.894 235.734 189.052 235.953 189.17 236.195C189.351 236.513 189.527 236.923 189.325 237.234C189.228 237.347 189.124 237.453 189.014 237.553C188.643 237.981 188.864 238.637 189.111 239.144C189.363 239.704 189.71 240.216 190.137 240.657C190.195 240.706 190.256 240.751 190.319 240.793Z" fill="black"/>
<path d="M196.677 240.534C196.417 240.648 196.133 240.694 195.85 240.669C195.568 240.644 195.296 240.548 195.06 240.391C194.313 239.988 193.553 238.585 193.32 237.423C193.287 237.312 193.285 237.196 193.312 237.084C193.34 236.973 193.396 236.87 193.476 236.788C193.556 236.705 193.656 236.645 193.767 236.614C193.877 236.583 193.994 236.582 194.105 236.611C194.243 236.635 194.37 236.701 194.468 236.8C194.567 236.899 194.633 237.025 194.658 237.163C194.864 238.508 195.589 239.718 196.677 240.534Z" fill="#F5F5F5"/>
<path d="M199.613 241.027C199.31 241.112 198.992 241.123 198.684 241.059C198.377 240.994 198.089 240.857 197.846 240.657C196.882 239.804 196.213 238.667 195.937 237.41C195.916 237.306 195.92 237.2 195.949 237.098C195.978 236.997 196.031 236.905 196.104 236.828C196.177 236.752 196.267 236.695 196.367 236.662C196.467 236.628 196.573 236.62 196.677 236.637C196.81 236.661 196.932 236.726 197.027 236.822C197.121 236.919 197.183 237.042 197.203 237.176C197.29 237.957 197.552 238.709 197.969 239.376C198.386 240.043 198.948 240.607 199.613 241.027Z" fill="#F5F5F5"/>
<path d="M202.646 241.832C202.337 241.886 202.02 241.872 201.716 241.793C201.412 241.713 201.129 241.57 200.886 241.371C199.971 240.535 199.345 239.43 199.1 238.215C199.074 238.109 199.075 237.999 199.103 237.893C199.131 237.788 199.185 237.692 199.26 237.613C199.335 237.534 199.429 237.475 199.532 237.442C199.636 237.409 199.746 237.402 199.853 237.423C199.987 237.445 200.111 237.51 200.206 237.606C200.302 237.703 200.365 237.827 200.386 237.962C200.434 238.739 200.663 239.493 201.056 240.166C201.448 240.838 201.993 241.409 202.646 241.832Z" fill="#F5F5F5"/>
<path d="M164.717 237.936C164.717 237.936 158.651 239.124 154.15 242.151C154.15 242.151 158.775 236.734 165.919 235.766L164.717 237.936Z" fill="#263238"/>
<path d="M187.435 191.681L179.876 170.326L177.882 171.041L179.077 194.629L180.376 198.137C183.76 196.37 186.52 195.071 187.435 191.681Z" fill="#FFA8A7"/>
<path d="M169.653 164.715C174.336 164.767 178.609 166.469 180.382 170.138C182.155 173.808 187.585 190.479 187.585 190.479C187.585 190.479 183.13 195.72 176.544 195.298L169.653 164.715Z" fill="#E62B4A"/>
<path opacity="0.1" d="M169.653 164.715C174.336 164.767 178.609 166.469 180.382 170.138C182.155 173.808 187.585 190.479 187.585 190.479C187.585 190.479 183.13 195.72 176.544 195.298L169.653 164.715Z" fill="black"/>
<path d="M160.048 165.001C153.481 166.215 149.104 167.599 147.864 168.826C145.071 174.548 148.701 193.727 148.701 193.727L149.351 202.852L148.195 213.373C155.294 219.374 177.018 216.425 180.889 208.021C180.889 208.021 179.804 180.666 179.804 175.814C179.804 170.963 177.116 165.15 169.679 164.715L160.048 165.001Z" fill="#FAFAFA"/>
<path d="M155.268 209.249C153.365 206.333 153.443 198.916 153.443 198.916C153.443 198.916 156.768 179.562 156.001 174.951L147.227 183.381C147.786 188.921 148.701 193.772 148.701 193.772L149.351 202.897L148.195 213.418C153.871 218.218 168.9 217.315 176.674 212.425C165.263 216.952 157.164 212.165 155.268 209.249Z" fill="#EBEBEB"/>
<path d="M156.411 149.609C156.411 149.609 157.398 156.889 157.924 158.11C158.277 158.865 158.907 159.456 159.684 159.76L159.957 154.713L156.411 149.609Z" fill="#263238"/>
<path d="M159.106 139.457C158.577 139.354 158.032 139.372 157.512 139.512C156.992 139.651 156.511 139.908 156.105 140.263C154.754 141.451 155.157 145.523 156.424 149.576L159.275 150.122L159.106 139.457Z" fill="#263238"/>
<path d="M160.132 150.187C159.535 150.485 158.794 149.323 158.138 148.524C157.482 147.725 155.242 146.537 153.904 148.888C152.566 151.239 154.488 154.733 156.274 155.441C159.346 156.662 159.97 154.681 159.97 154.681L159.32 166.267C162.171 172.476 173.55 170.261 169.666 165.995L169.874 163.052C171.446 163.284 173.033 163.403 174.622 163.41C176.966 163.221 178.031 161.695 178.921 159.24C180.35 155.304 181.025 152.096 180.655 144.101C180.259 135.353 170.179 134.508 164.477 137.528C158.775 140.548 160.132 150.187 160.132 150.187Z" fill="#FFA8A7"/>
<path d="M159.931 134.749C161.903 134.075 163.944 133.624 166.016 133.404C170.484 132.755 175.031 132.235 179.2 130.501C179.692 130.232 180.253 130.116 180.811 130.17C181.863 130.384 182.227 131.703 182.188 132.768C182.155 133.763 181.953 134.744 181.59 135.671C181.933 135.387 182.374 135.25 182.817 135.29C183.26 135.33 183.669 135.544 183.954 135.885C184.224 136.24 184.409 136.651 184.496 137.087C184.583 137.524 184.569 137.975 184.454 138.405C184.194 139.37 183.703 140.258 183.024 140.992C182.346 141.726 181.499 142.285 180.558 142.62C178.671 143.279 176.664 143.525 174.674 143.341C171.893 143.213 169.133 142.795 166.438 142.094C165.796 141.882 165.121 141.783 164.444 141.802C164.105 141.814 163.775 141.921 163.493 142.112C163.212 142.302 162.99 142.569 162.853 142.88C162.483 143.952 161.619 151.375 160.087 151.323C159.801 151.323 158.859 149.375 158.197 148.634C157.372 147.725 156.956 141.276 156.898 140.087C156.882 139.994 156.847 139.906 156.794 139.828C155.897 138.347 157.248 136.074 158.541 135.398C158.992 135.156 159.456 134.94 159.931 134.749Z" fill="#263238"/>
<path d="M157.339 139.944C156.947 140.342 156.412 140.566 155.854 140.569C155.295 140.572 154.759 140.353 154.361 139.961C153.964 139.568 153.74 139.034 153.737 138.475C153.734 137.917 153.953 137.38 154.345 136.983L157.339 139.944Z" fill="#263238"/>
<path d="M169.867 163.052C169.867 163.052 164.743 162.169 163.009 161.104C161.989 160.471 161.184 159.545 160.697 158.448C160.889 159.525 161.298 160.553 161.899 161.468C163.094 163.254 169.725 165.001 169.725 165.001L169.867 163.052Z" fill="#F28F8F"/>
<path d="M170.387 149.608C170.364 149.811 170.281 150.002 170.15 150.158C170.019 150.314 169.845 150.427 169.649 150.485C169.454 150.543 169.246 150.542 169.051 150.482C168.856 150.423 168.683 150.307 168.554 150.15C168.424 149.993 168.343 149.802 168.322 149.599C168.3 149.396 168.338 149.192 168.432 149.011C168.526 148.83 168.67 148.681 168.848 148.581C169.026 148.482 169.229 148.437 169.432 148.452C169.571 148.465 169.706 148.506 169.829 148.571C169.952 148.636 170.061 148.725 170.15 148.832C170.238 148.94 170.305 149.064 170.346 149.197C170.386 149.33 170.4 149.47 170.387 149.608Z" fill="#263238"/>
<path d="M169.582 145.608L167.276 146.666C167.14 146.35 167.132 145.994 167.253 145.672C167.374 145.35 167.615 145.087 167.926 144.939C168.078 144.871 168.242 144.834 168.409 144.831C168.576 144.828 168.741 144.859 168.896 144.921C169.05 144.984 169.191 145.077 169.309 145.195C169.427 145.313 169.519 145.453 169.582 145.608Z" fill="#263238"/>
<path d="M169.867 156.805L172.167 157.87C172.102 158.024 172.007 158.163 171.887 158.28C171.767 158.396 171.625 158.487 171.47 158.548C171.314 158.608 171.148 158.637 170.981 158.632C170.814 158.627 170.649 158.589 170.497 158.519C170.188 158.374 169.948 158.112 169.83 157.791C169.712 157.47 169.726 157.116 169.867 156.805Z" fill="#F28F8F"/>
<path d="M179.557 147.244L177.655 145.536C177.759 145.407 177.889 145.3 178.036 145.222C178.184 145.145 178.346 145.098 178.512 145.085C178.678 145.072 178.845 145.094 179.002 145.148C179.16 145.202 179.304 145.288 179.428 145.4C179.681 145.632 179.836 145.953 179.86 146.296C179.884 146.639 179.776 146.979 179.557 147.244Z" fill="#263238"/>
<path d="M178.733 149.946C178.709 150.149 178.627 150.34 178.496 150.495C178.364 150.651 178.19 150.765 177.995 150.823C177.8 150.881 177.592 150.88 177.397 150.82C177.202 150.761 177.029 150.645 176.899 150.488C176.77 150.331 176.689 150.139 176.667 149.937C176.646 149.734 176.684 149.53 176.778 149.349C176.871 149.168 177.016 149.018 177.194 148.919C177.372 148.82 177.575 148.775 177.778 148.79C178.057 148.818 178.314 148.955 178.493 149.172C178.672 149.388 178.758 149.667 178.733 149.946Z" fill="#263238"/>
<path d="M173.453 148.881L173.323 155.129L176.661 154.265L173.453 148.881Z" fill="#F28F8F"/>
<path d="M140.278 212.548C136.069 208.314 135.394 206.93 135.965 204.287C137.095 199.091 141.713 182.458 143.467 177.516C145.668 171.307 146.649 168.826 150.312 168.027C153.267 170.365 156.157 179.12 152.183 187.005L147.39 204.215" fill="#FFA8A7"/>
<path d="M153.456 166.495C147.799 167.144 145.402 169.43 143.363 175.542C141.324 181.653 137.738 195.72 137.738 195.72C137.738 195.72 142.486 200.864 149.143 200.325L154.689 181.945C154.689 181.945 158.593 168.579 153.456 166.495Z" fill="#E62B4A"/>
<path opacity="0.1" d="M153.456 166.495C147.799 167.144 145.402 169.43 143.363 175.542C141.324 181.653 137.738 195.72 137.738 195.72C137.738 195.72 142.486 200.864 149.143 200.325L154.689 181.945C154.689 181.945 158.593 168.579 153.456 166.495Z" fill="black"/>
<path d="M152.144 229.804V230.454C152.145 230.78 152.232 231.1 152.395 231.382C152.557 231.665 152.791 231.9 153.072 232.065L170.777 242.248C171.058 242.41 171.377 242.495 171.702 242.495C172.027 242.495 172.346 242.41 172.628 242.248L205.101 223.498C205.384 223.336 205.618 223.103 205.781 222.821C205.945 222.539 206.03 222.219 206.03 221.894V221.439L171.705 241.261L152.144 229.804Z" fill="#EBEBEB"/>
<path d="M206.03 221.446L186.78 210.333C186.611 210.235 186.419 210.183 186.224 210.183C186.029 210.183 185.837 210.235 185.669 210.333L152.267 229.616C152.229 229.638 152.198 229.669 152.176 229.706C152.154 229.744 152.143 229.787 152.143 229.83C152.143 229.874 152.154 229.917 152.176 229.954C152.198 229.992 152.229 230.023 152.267 230.045L171.705 241.267L206.03 221.446Z" fill="#FAFAFA"/>
<path d="M197.47 210.184C194.826 205.495 187.436 191.681 187.436 191.681L180.382 198.175C183.259 203.618 191.073 214.568 191.073 214.568C194.664 216.913 198.989 212.886 197.47 210.184Z" fill="#FFA8A7"/>
<path d="M171.524 239.631L161.139 233.643L191.508 216.114L201.945 222.069L171.524 239.631Z" fill="#E0E0E0"/>
<path d="M166.425 222.972L166.614 223.082L171.705 226.018L180.759 220.796L180.941 220.686L175.661 217.64L166.425 222.972Z" fill="#E0E0E0"/>
<path d="M166.614 223.082L171.705 226.018L180.759 220.796L175.661 217.854L166.614 223.082Z" fill="#E6E6E6"/>
<path d="M171.705 241.267V242.482C172.029 242.484 172.348 242.399 172.628 242.235L205.101 223.485C205.384 223.323 205.618 223.09 205.781 222.808C205.945 222.526 206.03 222.206 206.03 221.881V221.426L171.705 241.267Z" fill="#EBEBEB"/>
<path d="M171.705 241.267V242.482C172.029 242.484 172.348 242.399 172.628 242.235L205.101 223.485C205.384 223.323 205.618 223.09 205.781 222.808C205.945 222.526 206.03 222.206 206.03 221.881V221.426L171.705 241.267Z" fill="#E0E0E0"/>
<path d="M172.225 241.54C172.532 241.661 172.861 241.71 173.19 241.686C173.518 241.661 173.836 241.562 174.121 241.397L206.452 222.725C206.733 222.565 206.974 222.344 207.16 222.079C207.345 221.814 207.469 221.511 207.523 221.192L211.063 200.085C211.073 199.964 211.073 199.842 211.063 199.721C211.063 199.431 211.006 199.144 210.895 198.877C210.783 198.609 210.62 198.366 210.414 198.162L176.817 217.562C176.609 217.681 176.43 217.845 176.293 218.042C176.156 218.238 176.064 218.462 176.024 218.699L172.225 241.54Z" fill="#E62B4A"/>
<g opacity="0.7">
<path opacity="0.7" d="M172.225 241.54C172.532 241.661 172.861 241.71 173.19 241.686C173.518 241.661 173.836 241.562 174.121 241.397L206.452 222.725C206.733 222.565 206.974 222.344 207.16 222.079C207.345 221.814 207.469 221.511 207.523 221.192L211.063 200.085C211.073 199.964 211.073 199.842 211.063 199.721C211.063 199.431 211.006 199.144 210.895 198.877C210.783 198.609 210.62 198.366 210.414 198.162L176.817 217.562C176.609 217.681 176.43 217.845 176.293 218.042C176.156 218.238 176.064 218.462 176.024 218.699L172.225 241.54Z" fill="white"/>
</g>
<path d="M171.705 241.267L171.926 241.397C172.023 241.451 172.122 241.499 172.225 241.54L176.05 218.699C176.09 218.462 176.182 218.238 176.319 218.042C176.456 217.845 176.635 217.681 176.843 217.562L210.44 198.163C210.306 198.029 210.155 197.913 209.991 197.818L176.323 217.257C176.116 217.376 175.938 217.54 175.802 217.736C175.666 217.933 175.576 218.157 175.537 218.393L171.705 241.267Z" fill="#FAFAFA"/>
<path d="M190.436 222.056C190.67 220.64 192.131 218.764 193.683 217.861C195.236 216.958 196.32 217.374 196.08 218.79C195.84 220.205 194.385 222.076 192.833 222.979C191.28 223.881 190.183 223.472 190.436 222.056Z" fill="#E62B4A"/>
<path d="M147.389 204.216C147.389 204.216 149.819 208.249 152.624 212.009C155.43 215.769 158.469 219.731 160.743 220.4C162.879 221.05 165.386 221.784 166.114 222.452C167.861 224.226 169.488 226.113 170.985 228.103C171.634 229.213 173.264 231.474 170.985 232.194C168.9 232.844 167.198 231.961 165.51 230.798C164.713 230.228 163.956 229.605 163.243 228.934C161.551 229.12 159.844 228.779 158.352 227.96C157.054 227.233 154.91 225.96 154.91 225.96C153.131 224.739 144.292 216.555 140.278 212.529" fill="#FFA8A7"/>
</svg>
